<svg width="65" height="66" viewBox="0 0 65 66" fill="none" xmlns="http://www.w3.org/2000/svg">
<path d="M32.5 65.5C50.4493 65.5 65 50.9493 65 33C65 15.0507 50.4493 0.5 32.5 0.5C14.5507 0.5 0 15.0507 0 33C0 50.9493 14.5507 65.5 32.5 65.5Z" fill="white"/>
<path d="M42 14.5H22V18.5H42V14.5Z" fill="#EE5BA0"/>
<path d="M35 19.5H22V22.5H35V19.5Z" fill="#8BC53F"/>
<path d="M44 23.5H22V26.5H44V23.5Z" fill="#F05A22"/>
<path d="M38 27.542H22V30.484H38V27.542Z" fill="#26A9E0"/>
<path d="M40 31.5H22V36.369H40V31.5Z" fill="#EC1846"/>
<path d="M44 37.5H22V41.5H44V37.5Z" fill="#74489C"/>
<path d="M13 23.5H5V25.5H13V23.5Z" fill="#808080"/>
<path d="M49 42.5H19V44.5H49V42.5Z" fill="#808080"/>
<path d="M24 47.5C25.654 47.5 27 48.846 27 50.5C27 52.154 25.654 53.5 24 53.5C22.346 53.5 21 52.154 21 50.5C21 48.846 22.346 47.5 24 47.5ZM24 45.5C21.238 45.5 19 47.738 19 50.5C19 53.262 21.238 55.5 24 55.5C26.762 55.5 29 53.262 29 50.5C29 47.738 26.762 45.5 24 45.5Z" fill="#808080"/>
<path d="M44 47.5C45.654 47.5 47 48.846 47 50.5C47 52.154 45.654 53.5 44 53.5C42.346 53.5 41 52.154 41 50.5C41 48.846 42.346 47.5 44 47.5ZM44 45.5C41.238 45.5 39 47.738 39 50.5C39 53.262 41.238 55.5 44 55.5C46.762 55.5 49 53.262 49 50.5C49 47.738 46.762 45.5 44 45.5Z" fill="#808080"/>
<path fill-rule="evenodd" clip-rule="evenodd" d="M14 23.5L20 42.5L19 44.5L13 25.5V23.5H14Z" fill="#808080"/>
<path fill-rule="evenodd" clip-rule="evenodd" d="M49 44.5H47L49 34.5H51L49 44.5Z" fill="#808080"/>
</svg>
