<svg width="135" height="40" viewBox="0 0 135 40" fill="none" xmlns="http://www.w3.org/2000/svg">
<path d="M128.642 39.7529H5.1852C2.46916 39.7529 0.246933 37.5307 0.246933 34.8147V5.18503C0.246933 2.46898 2.46916 0.24676 5.1852 0.24676H128.642C131.358 0.24676 133.58 2.46898 133.58 5.18503V34.8147C133.58 37.5307 131.358 39.7529 128.642 39.7529Z" fill="black"/>
<path d="M128.642 0.24676H5.1852C2.46916 0.24676 0.246933 2.46898 0.246933 5.18503V34.8147C0.246933 37.5307 2.46916 39.7529 5.1852 39.7529H128.642C131.358 39.7529 133.58 37.5307 133.58 34.8147V5.18503C133.58 2.46898 131.358 0.24676 128.642 0.24676ZM128.642 1.03688C130.929 1.03688 132.79 2.89802 132.79 5.18503V34.8147C132.79 37.1021 130.929 38.9632 128.642 38.9632H5.1852C2.89819 38.9632 1.03706 37.1021 1.03706 34.8147V5.18503C1.03706 2.89802 2.89819 1.03688 5.1852 1.03688H128.642Z" />
<path d="M105.863 29.8765H107.706V17.5296H105.863V29.8765ZM122.462 21.9772L120.35 27.3302H120.286L118.094 21.9772H116.109L119.397 29.459L117.522 33.6207H119.445L124.512 21.9772H122.462ZM112.011 28.4741C111.406 28.4741 110.565 28.1724 110.565 27.4255C110.565 26.4725 111.614 26.1072 112.519 26.1072C113.329 26.1072 113.71 26.2819 114.202 26.5204C114.059 27.6639 113.075 28.4741 112.011 28.4741V28.4741ZM112.233 21.7071C110.899 21.7071 109.517 22.295 108.945 23.5976L110.581 24.2804C110.93 23.5976 111.581 23.3749 112.265 23.3749C113.218 23.3749 114.187 23.9471 114.202 24.9637V25.0906C113.869 24.9 113.155 24.6141 112.281 24.6141C110.518 24.6141 108.722 25.5828 108.722 27.3938C108.722 29.0459 110.168 30.1102 111.788 30.1102C113.027 30.1102 113.71 29.5543 114.139 28.9031H114.202V29.856H115.981V25.1222C115.981 22.9305 114.346 21.7071 112.233 21.7071V21.7071ZM100.843 23.4802H98.2222V19.248H100.843C102.221 19.248 103.003 20.3888 103.003 21.3641C103.003 22.3209 102.221 23.4802 100.843 23.4802ZM100.796 17.5296H96.3803V29.8765H98.2222V25.1986H100.796C102.839 25.1986 104.846 23.7198 104.846 21.3641C104.846 19.0084 102.839 17.5296 100.796 17.5296ZM76.7161 28.4764C75.4429 28.4764 74.3769 27.4104 74.3769 25.9463C74.3769 24.4668 75.4429 23.3846 76.7161 23.3846C77.9731 23.3846 78.9595 24.4668 78.9595 25.9463C78.9595 27.4104 77.9731 28.4764 76.7161 28.4764V28.4764ZM78.8322 22.6686H78.7685C78.355 22.1754 77.559 21.7299 76.5568 21.7299C74.4564 21.7299 72.5313 23.5755 72.5313 25.9463C72.5313 28.3013 74.4564 30.1311 76.5568 30.1311C77.559 30.1311 78.355 29.6855 78.7685 29.1766H78.8322V29.7812C78.8322 31.3885 77.9731 32.2476 76.5888 32.2476C75.4591 32.2476 74.7589 31.4359 74.4722 30.7518L72.8654 31.4201C73.3268 32.5339 74.5521 33.9023 76.5888 33.9023C78.7527 33.9023 80.5825 32.6292 80.5825 29.5265V21.9845H78.8322V22.6686ZM81.8553 29.8765H83.7011V17.5292H81.8553V29.8765ZM86.422 25.8032C86.3742 24.1801 87.679 23.3529 88.6177 23.3529C89.3501 23.3529 89.9704 23.7186 90.1768 24.2442L86.422 25.8032ZM92.1501 24.4031C91.8005 23.464 90.7338 21.7299 88.554 21.7299C86.39 21.7299 84.5922 23.4324 84.5922 25.9305C84.5922 28.2855 86.3742 30.1311 88.7608 30.1311C90.6864 30.1311 91.8005 28.9536 92.2618 28.2696L90.8297 27.3147C90.3526 28.0149 89.6998 28.4764 88.7608 28.4764C87.8221 28.4764 87.154 28.0466 86.7242 27.2036L92.3408 24.8803L92.1501 24.4031ZM47.4013 23.0188V24.8008H51.6655C51.5382 25.8032 51.2041 26.535 50.6948 27.0443C50.0745 27.665 49.1038 28.3491 47.4013 28.3491C44.7758 28.3491 42.7234 26.2329 42.7234 23.6075C42.7234 20.9821 44.7758 18.8657 47.4013 18.8657C48.8175 18.8657 49.8515 19.4227 50.6153 20.1388L51.8723 18.8819C50.8063 17.8633 49.39 17.0837 47.4013 17.0837C43.8052 17.0837 40.782 20.0115 40.782 23.6075C40.782 27.2036 43.8052 30.1311 47.4013 30.1311C49.3426 30.1311 50.8063 29.4949 51.9518 28.3013C53.1293 27.1238 53.4954 25.4691 53.4954 24.1327C53.4954 23.7186 53.4637 23.3371 53.3997 23.0188H47.4013ZM58.3434 28.4764C57.0702 28.4764 55.9723 27.4262 55.9723 25.9305C55.9723 24.4189 57.0702 23.3846 58.3434 23.3846C59.6161 23.3846 60.7141 24.4189 60.7141 25.9305C60.7141 27.4262 59.6161 28.4764 58.3434 28.4764V28.4764ZM58.3434 21.7299C56.0201 21.7299 54.1265 23.496 54.1265 25.9305C54.1265 28.3491 56.0201 30.1311 58.3434 30.1311C60.6663 30.1311 62.5598 28.3491 62.5598 25.9305C62.5598 23.496 60.6663 21.7299 58.3434 21.7299ZM67.5416 28.4764C66.269 28.4764 65.1709 27.4262 65.1709 25.9305C65.1709 24.4189 66.269 23.3846 67.5416 23.3846C68.8144 23.3846 69.9124 24.4189 69.9124 25.9305C69.9124 27.4262 68.8144 28.4764 67.5416 28.4764ZM67.5416 21.7299C65.2184 21.7299 63.3253 23.496 63.3253 25.9305C63.3253 28.3491 65.2184 30.1311 67.5416 30.1311C69.8646 30.1311 71.7581 28.3491 71.7581 25.9305C71.7581 23.496 69.8646 21.7299 67.5416 21.7299Z" fill="white"/>
<path d="M10.627 32.2363L10.5536 32.1661C10.2662 31.862 10.0965 31.3898 10.0965 30.7784V30.9223V9.07929C10.0965 9.07731 10.0965 9.07583 10.0965 9.07425C10.0965 9.07613 10.0965 9.07771 10.0965 9.07969V9.22398C10.0965 8.56186 10.2944 8.06309 10.6258 7.76403L22.8626 20.0006L10.627 32.2363ZM10.0965 9.07307C10.0965 9.01865 10.098 8.96581 10.1008 8.91376C10.098 8.96541 10.0965 9.01865 10.0965 9.07307ZM10.1008 8.91139C10.1008 8.9107 10.1008 8.90991 10.1011 8.90912C10.1008 8.90991 10.1008 8.9107 10.1008 8.91139ZM10.1011 8.90448C10.1011 8.90408 10.1011 8.90369 10.1011 8.90329C10.1011 8.90369 10.1011 8.90408 10.1011 8.90448Z" fill="url(#paint0_linear)"/>
<path d="M26.9409 24.2256L27.034 24.1727L31.8665 21.427C32.3272 21.165 32.6343 20.8475 32.7875 20.5115C32.6347 20.8475 32.3275 21.1654 31.8665 21.4274L27.034 24.1731L26.9409 24.2256V24.2256ZM26.9421 24.0809L22.8626 20.0007L26.9417 15.9212L31.8665 18.719C32.4919 19.0744 32.843 19.5324 32.9016 20.0003C32.9016 20.0007 32.9016 20.0015 32.9016 20.0022C32.843 20.469 32.4919 20.9274 31.8665 21.2827L26.9421 24.0809" fill="url(#paint1_linear)"/>
<path d="M11.4993 32.7026C11.1575 32.7026 10.8592 32.5915 10.6266 32.3816L10.627 32.3813C10.8596 32.5911 11.1582 32.7026 11.5001 32.7026C11.5297 32.7026 11.5598 32.7018 11.5903 32.7004C11.5594 32.7018 11.5289 32.7026 11.4993 32.7026V32.7026ZM11.4997 32.5579C11.1579 32.5583 10.8596 32.4468 10.627 32.237V32.2367L22.8626 20.0009L26.9422 24.0811L12.6062 32.2266C12.2095 32.4515 11.8337 32.5579 11.4997 32.5579V32.5579ZM10.6235 32.379C10.6019 32.3593 10.5807 32.3385 10.5598 32.3169L10.6235 32.379Z" fill="url(#paint2_linear)"/>
<path d="M22.8626 20.001L10.6258 7.76443C10.8584 7.55495 11.1563 7.44384 11.4977 7.44384C11.8326 7.44384 12.2087 7.55071 12.6061 7.77599L26.9417 15.9215L22.8626 20.001V20.001ZM27.034 15.8293L12.6061 7.63179C12.2087 7.40641 11.8326 7.29954 11.4977 7.29954C11.4961 7.29954 11.495 7.29954 11.4934 7.29954C11.4954 7.29954 11.4969 7.29954 11.4993 7.29954C11.8334 7.29954 12.2091 7.40601 12.6061 7.6314L27.034 15.8293V15.8293Z" fill="url(#paint3_linear)"/>
<path d="M11.5903 32.7002C11.9008 32.6824 12.2446 32.5756 12.6061 32.3707L26.9409 24.2256L12.6061 32.3707C12.2449 32.5759 11.9008 32.6824 11.5903 32.7002V32.7002ZM10.6266 32.3815L10.6235 32.3788C10.6246 32.3796 10.6258 32.3807 10.6266 32.3815ZM10.5598 32.3167L10.5536 32.3106V32.3102C10.556 32.3124 10.5578 32.3147 10.5598 32.3167Z" fill="black"/>
<path d="M26.941 24.2256L27.034 24.1727L26.941 24.2256Z" fill="url(#paint4_linear)"/>
<path d="M11.5001 32.7026C11.1582 32.7026 10.8596 32.5911 10.627 32.3813L10.6266 32.3816C10.6258 32.3809 10.6246 32.3798 10.6235 32.379L10.5598 32.3169C10.5578 32.3149 10.556 32.3126 10.5536 32.3103L10.627 32.237C10.8596 32.4468 11.1578 32.5583 11.4997 32.5579C11.8337 32.5579 12.2095 32.4515 12.6061 32.2266L26.9421 24.0811L27.034 24.173L26.9409 24.2258L12.6061 32.3709C12.2446 32.5757 11.9008 32.6826 11.5903 32.7004C11.5598 32.7018 11.5297 32.7026 11.5001 32.7026" fill="url(#paint5_linear)"/>
<path d="M10.5536 32.3105C10.2662 32.0064 10.0965 31.5342 10.0965 30.9228V30.9224C10.0965 31.5342 10.2662 32.0061 10.5536 32.3102V32.3105" fill="black"/>
<path d="M10.5536 32.3101C10.2662 32.006 10.0965 31.5342 10.0965 30.9223V30.7784C10.0965 31.3899 10.2662 31.8621 10.5536 32.1662L10.627 32.2364L10.5536 32.3101" fill="url(#paint6_linear)"/>
<path d="M10.5536 32.3101L10.627 32.2364V32.2367L10.5536 32.3101" fill="url(#paint7_linear)"/>
<path d="M32.7875 20.5117C32.8634 20.345 32.9017 20.1737 32.9017 20.0024C32.9017 20.0021 32.9017 20.0017 32.9017 20.0017C32.9017 20.1733 32.8634 20.3446 32.7875 20.5117Z" fill="black"/>
<path d="M27.034 24.1729L26.9421 24.081L31.8665 21.2828C32.4919 20.9275 32.843 20.4691 32.9016 20.0023C32.9016 20.1736 32.8634 20.3449 32.7875 20.5116C32.6343 20.8476 32.3272 21.1651 31.8665 21.4271L27.034 24.1729Z" fill="url(#paint8_linear)"/>
<path d="M32.9016 20.001V20.0006C32.9012 19.4839 32.5559 18.9674 31.8665 18.5754L27.034 15.8296H27.0336L27.034 15.8293L31.8665 18.575C32.5567 18.967 32.9024 19.4843 32.9016 20.001Z" fill="#404040"/>
<path d="M32.9016 20.0005C32.843 19.5325 32.4919 19.0746 31.8665 18.7192L26.9417 15.9214L27.0336 15.8295H27.034L31.8665 18.5753C32.556 18.9673 32.9012 19.4838 32.9016 20.0005Z" fill="url(#paint9_linear)"/>
<path d="M10.0965 9.07471C10.0965 9.07431 10.0965 9.07392 10.0965 9.07352C10.0965 9.07392 10.0965 9.07431 10.0965 9.07471ZM10.1008 8.91421C10.1008 8.91342 10.1008 8.91263 10.1008 8.91184C10.1008 8.91263 10.1008 8.91342 10.1008 8.91421ZM10.1011 8.90957C10.1011 8.90799 10.1011 8.90651 10.1011 8.90493C10.1011 8.90651 10.1011 8.90799 10.1011 8.90957ZM10.1011 8.90375C10.1583 7.88913 10.71 7.30305 11.4904 7.2996C11.152 7.30157 10.8573 7.41268 10.6266 7.62058V7.62019L10.6238 7.62295C10.5995 7.64488 10.5764 7.66809 10.5536 7.69199C10.2944 7.96626 10.1308 8.37713 10.1011 8.90375Z" fill="#404040"/>
<path d="M10.0965 9.22412V9.07982C10.0965 9.07785 10.0965 9.07627 10.0965 9.07439C10.0965 9.074 10.0965 9.0736 10.0965 9.07321C10.0965 9.01879 10.098 8.96555 10.1008 8.9139C10.1008 8.91311 10.1008 8.91232 10.1008 8.91153C10.1008 8.91084 10.1008 8.91005 10.1011 8.90926C10.1011 8.90768 10.1011 8.9062 10.1011 8.90462C10.1011 8.90422 10.1011 8.90383 10.1011 8.90343C10.1308 8.37681 10.2944 7.96595 10.5536 7.69168L10.6258 7.76417C10.2944 8.06323 10.0965 8.562 10.0965 9.22412V9.22412ZM10.6238 7.62264L10.6266 7.61988C10.6258 7.62106 10.6246 7.62185 10.6238 7.62264Z" fill="url(#paint10_linear)"/>
<path d="M26.9417 15.9214L12.6061 7.77591C12.2087 7.55062 11.8326 7.44376 11.4977 7.44376C11.1562 7.44376 10.8584 7.55487 10.6258 7.76435L10.5536 7.69185C10.5764 7.66795 10.5995 7.64474 10.6238 7.62282C10.6246 7.62203 10.6258 7.62124 10.6266 7.62045C10.8573 7.41255 11.152 7.30144 11.4904 7.29946C11.4912 7.29946 11.4922 7.29946 11.4934 7.29946C11.495 7.29946 11.4961 7.29946 11.4977 7.29946C11.8326 7.29946 12.2087 7.40632 12.6061 7.63171L27.034 15.8292L27.0336 15.8295L26.9417 15.9214Z" fill="url(#paint11_linear)"/>
<path d="M43.2065 10.0908C43.218 11.0283 43.0302 11.7844 42.6443 12.3586H45.64V7.88863H43.2065V10.0908ZM41.8407 14.3442H41.1127V12.3586H41.6922C42.2053 11.9164 42.456 11.161 42.4457 10.0908V7.16063H46.402V12.3586H47.0637V14.3442H46.3354V13.0866H41.8407V14.3442" fill="white"/>
<path d="M43.2065 10.0907L43.1077 10.0919L43.1085 10.1717C43.1081 11.0587 42.9229 11.767 42.5621 12.3032L42.4588 12.4572H45.7388V7.78973H43.1077V10.0915V10.0919L43.2065 10.0907H43.3052V7.98727H45.5413V12.2597H42.6443V12.3584L42.7262 12.4132C43.1146 11.8353 43.306 11.0852 43.306 10.1717L43.3052 10.0895L43.2065 10.0907H43.3052H43.2065ZM41.8407 14.3441V14.2453H41.2115V12.4572H41.6922H41.7288L41.7566 12.4333C42.2905 11.9726 42.5448 11.2052 42.5448 10.1555L42.5444 10.0899V10.0907V7.25927H46.3032V12.4572H46.965V14.2453H46.4341V13.0864V12.9877H41.742V14.3441H41.8407V14.2453V14.3441H41.9395V13.1852H46.2366V14.3441V14.4429H47.0637H47.1625V12.2597H46.5008V7.06173H42.3469V10.0911V10.0915L42.3473 10.1555C42.3469 11.1775 42.0992 11.8785 41.6277 12.2832L41.6922 12.3584V12.2597H41.1127H41.014V14.4429H41.8407H41.9395V14.3441H41.8407" fill="white"/>
<path d="M49.2192 11.8245C49.6582 12.2685 50.1945 12.4904 50.8292 12.4904C51.4637 12.4904 52.0008 12.2685 52.4386 11.8245C52.8778 11.3804 53.0976 10.8128 53.0976 10.1234C53.0976 9.43406 52.8778 8.86646 52.4386 8.42241C52.0008 7.97836 51.4637 7.75653 50.8292 7.75653C50.1945 7.75653 49.6582 7.97836 49.2192 8.42241C48.7813 8.86646 48.5614 9.43406 48.5614 10.1234C48.5614 10.8128 48.7813 11.3804 49.2192 11.8245ZM53.002 12.3206C52.4194 12.9197 51.6952 13.2188 50.8292 13.2188C49.963 13.2188 49.2384 12.9197 48.657 12.3206C48.0745 11.7222 47.784 10.9896 47.784 10.1234C47.784 9.25727 48.0745 8.52463 48.657 7.92631C49.2384 7.3271 49.963 7.02774 50.8292 7.02774C51.6902 7.02774 52.4129 7.32868 52.998 7.93016C53.5825 8.53164 53.875 9.2627 53.875 10.1234C53.875 10.9896 53.5837 11.7222 53.002 12.3206Z" fill="white"/>
<path d="M49.2192 11.8243L49.1489 11.8938C49.6038 12.3556 50.1713 12.5902 50.8291 12.589C51.4865 12.5902 52.0552 12.3556 52.5088 11.8938C52.9668 11.4316 53.1971 10.8335 53.1964 10.1233C53.1971 9.41309 52.9668 8.81506 52.5088 8.35284C52.0552 7.89101 51.4865 7.65644 50.8291 7.65763C50.1713 7.65644 49.6038 7.89101 49.1489 8.35284C48.6922 8.81506 48.4618 9.41309 48.4626 10.1233C48.4618 10.8335 48.6922 11.4316 49.1489 11.8938L49.2192 11.8243L49.2898 11.7549C48.8707 11.3285 48.6612 10.7922 48.6602 10.1233C48.6612 9.45437 48.8707 8.91807 49.2898 8.4917H49.2894C49.7122 8.06543 50.2172 7.85635 50.8291 7.85516C51.4406 7.85635 51.9468 8.06543 52.3684 8.4917L52.37 8.49328L52.3684 8.4917C52.7886 8.91807 52.9977 9.45437 52.9988 10.1233C52.9977 10.7922 52.7886 11.3285 52.3684 11.7549C51.9468 12.1812 51.4406 12.3903 50.8291 12.3915C50.2172 12.3903 49.7122 12.1812 49.2894 11.7549L49.2192 11.8243ZM53.002 12.3204L52.9314 12.2518C52.3653 12.832 51.6725 13.1187 50.8291 13.1199C49.9854 13.1187 49.2929 12.832 48.7276 12.2518C48.1628 11.6696 47.8839 10.9675 47.8828 10.1233C47.8839 9.27916 48.1628 8.57704 48.7276 7.99481C49.2929 7.41457 49.9854 7.12756 50.8291 7.12637C51.6675 7.12756 52.3584 7.41575 52.9275 7.99906C53.4946 8.58395 53.7751 9.28499 53.7762 10.1233C53.7751 10.9675 53.4954 11.6696 52.9314 12.2518L53.002 12.3204L53.0729 12.3891C53.6717 11.7742 53.9745 11.0114 53.9737 10.1233C53.9745 9.24025 53.6709 8.47906 53.069 7.86138C52.4672 7.24133 51.7134 6.92775 50.8291 6.92884C49.9403 6.92775 49.184 7.23985 48.5861 7.85753V7.85713C47.9861 8.47244 47.6845 9.23521 47.6852 10.1233C47.6845 11.0114 47.9861 11.7742 48.5861 12.3895V12.3891C49.184 13.0068 49.9403 13.3182 50.8291 13.3174C51.7176 13.3182 52.4738 13.0068 53.0729 12.3891L53.002 12.3204Z" fill="white"/>
<path d="M57.708 13.2188C56.8361 13.2188 56.105 12.9236 55.5147 12.3329C54.9233 11.7427 54.6293 11.0061 54.6293 10.1234C54.6293 9.24068 54.9233 8.50418 55.5147 7.91396C56.105 7.32324 56.8361 7.02774 57.708 7.02774C58.6011 7.02774 59.3273 7.3507 59.8847 7.99613L59.3542 8.50962C58.9522 8.00729 58.4024 7.75653 57.708 7.75653C57.0618 7.75653 56.5166 7.9745 56.0729 8.41046C55.6285 8.84641 55.4067 9.41747 55.4067 10.1234C55.4067 10.8294 55.6285 11.4009 56.0729 11.8364C56.5166 12.2724 57.0618 12.4904 57.708 12.4904C58.4198 12.4904 59.0263 12.2036 59.5289 11.63L60.0583 12.1593C59.7875 12.4849 59.4487 12.743 59.0397 12.9328C58.6319 13.1234 58.1872 13.2188 57.708 13.2188" fill="white"/>
<path d="M57.708 13.2186V13.1199C56.8581 13.1187 56.1579 12.8351 55.5845 12.263C55.0116 11.69 54.7288 10.984 54.728 10.1233C54.7288 9.26257 55.0116 8.55659 55.5845 7.98365C56.1579 7.41111 56.8581 7.12755 57.708 7.12637C58.5776 7.12795 59.269 7.4358 59.8098 8.06039L59.8847 7.996L59.816 7.92499L59.2856 8.43886L59.3542 8.50948L59.4313 8.44775C59.0124 7.92232 58.4256 7.65615 57.708 7.65763C57.0394 7.65684 56.4641 7.88647 56.0039 8.3397C55.539 8.79462 55.3067 9.39718 55.3079 10.1233C55.3067 10.8494 55.539 11.4528 56.0039 11.9069C56.4641 12.3601 57.0394 12.5898 57.708 12.589C58.4468 12.5902 59.0869 12.2869 59.603 11.6951L59.5289 11.6299L59.4591 11.6997L59.9885 12.229L60.0583 12.1592L59.9823 12.0963C59.7207 12.4103 59.3951 12.6588 58.9981 12.8432C58.6034 13.0276 58.1745 13.1195 57.708 13.1199V13.2186V13.3174C58.2002 13.3174 58.6602 13.2194 59.0814 13.0223C59.5028 12.827 59.8539 12.5597 60.1343 12.2225L60.1917 12.1534L59.5989 11.56L59.524 11.4852L59.4546 11.5647C58.9661 12.1206 58.3928 12.3903 57.708 12.3915C57.0838 12.3903 56.5695 12.1842 56.1424 11.7657H56.1421C55.7177 11.349 55.5062 10.8092 55.5054 10.1233C55.5062 9.43738 55.7177 8.89842 56.1421 8.48094H56.1424C56.5695 8.06237 57.0838 7.85634 57.708 7.85516C58.3789 7.85674 58.8916 8.0921 59.2771 8.57121L59.3449 8.65615L59.9533 8.06701L60.0205 8.00212L59.9595 7.9316C59.3858 7.26494 58.6246 6.92775 57.708 6.92884C56.8137 6.92805 56.0517 7.2356 55.4449 7.844C54.8349 8.45121 54.5293 9.21901 54.5305 10.1233C54.5293 11.0276 54.8349 11.7954 55.4449 12.403C56.0517 13.011 56.8137 13.3182 57.708 13.3174V13.2186" fill="white"/>
<path d="M63.1381 13.0864H62.3762V7.8885H60.7211V7.1605H64.7932V7.8885H63.1381V13.0864Z" fill="white"/>
<path d="M63.1381 13.0863V12.9875H62.475V7.7896H60.8199V7.25913H64.6944V7.7896H63.0393V13.0863H63.1381V12.9875V13.0863H63.2368V7.98713H64.892V7.16037V7.0616H60.6223V7.88837V7.98713H62.2774V13.1851H63.1381H63.2368V13.0863H63.1381" fill="white"/>
<path d="M70.0212 7.16048L67.779 12.1593C67.4691 12.8658 67.0097 13.2188 66.397 13.2188C66.2149 13.2188 66.0189 13.1748 65.8087 13.0864L66.0073 12.3827C66.1346 12.4548 66.267 12.4904 66.4047 12.4904C66.5814 12.4904 66.7183 12.456 66.8148 12.3873C66.9113 12.3183 67.0008 12.1921 67.0838 12.0104L67.299 11.5382L65.3044 7.16048H66.1983L67.6632 10.5621H67.696L69.1269 7.16048H70.0212" fill="white"/>
<path d="M70.0212 7.16033L69.931 7.11983L67.6887 12.119L67.6883 12.1198C67.3835 12.8046 66.9672 13.1164 66.397 13.1198C66.2307 13.1198 66.0478 13.0797 65.8468 12.9952L65.8087 13.0863L65.9039 13.1132L66.1022 12.4095L66.0073 12.3826L65.9591 12.4686C66.0996 12.5481 66.2496 12.5894 66.4047 12.589C66.5934 12.589 66.7515 12.5531 66.8723 12.4674C66.9911 12.3814 67.0864 12.2413 67.1736 12.0515L67.3889 11.5793L67.4074 11.538L65.458 7.25909H66.1335L67.598 10.6607H67.696H67.7616L69.1925 7.25909H70.0212V7.16033L69.931 7.11983L70.0212 7.16033V7.06156H69.1269H69.0613L67.6045 10.5238L67.696 10.5619V10.4631H67.6632V10.5619L67.7539 10.523L66.2635 7.06156H65.3044H65.1508L67.1902 11.538L66.9939 11.9693C66.9156 12.1426 66.8314 12.2545 66.7573 12.3065C66.6852 12.3587 66.5691 12.3918 66.4047 12.3914C66.284 12.3914 66.1702 12.3609 66.0559 12.2965L65.9464 12.2348L65.7138 13.0593L65.6898 13.1433L65.7705 13.1773C65.9899 13.2695 66.1987 13.3174 66.397 13.3174C67.0517 13.3204 67.5548 12.9262 67.8692 12.1989L67.8688 12.1996L70.1736 7.06156H70.0212V7.16033" fill="white"/>
<path d="M70.8835 13.0864V7.1605H75.1709V13.0864H74.409V7.8885H71.6442V13.0864H70.8835Z" fill="white"/>
<path d="M70.8835 13.0863H70.9822V7.25913H75.0718V12.9875H74.5078V7.7896H71.5455V12.9875H70.8835V13.0863H70.9822H70.8835V13.1851H71.6443H71.743V7.98713H74.3102V13.1851H75.1709H75.2696V7.0616H70.7847V13.1851H70.8835V13.0863" fill="white"/>
<path d="M76.5278 13.0864V7.1605H77.289V9.70104H80.252V7.1605H81.0139V13.0864H80.252V10.4128H77.289V13.0864H76.5278Z" fill="white"/>
<path d="M76.5278 13.0863H76.6266V7.25913H77.1902V9.79968H80.3507V7.25913H80.9151V12.9875H80.3507V10.3139H77.1902V12.9875H76.5278V13.0863H76.6266H76.5278V13.1851H77.289H77.3877V10.5115H80.1532V13.1851H81.0139H81.1127V7.0616H80.2519H80.1532V9.60215H77.3877V7.0616H76.5278H76.429V13.1851H76.5278V13.0863Z" fill="white"/>
<path d="M83.4344 11.8245C83.8735 12.2685 84.4097 12.4904 85.0444 12.4904C85.6791 12.4904 86.2162 12.2685 86.654 11.8245C87.093 11.3804 87.3129 10.8128 87.3129 10.1234C87.3129 9.43406 87.093 8.86646 86.654 8.42241C86.2162 7.97836 85.6791 7.75653 85.0444 7.75653C84.4097 7.75653 83.8735 7.97836 83.4344 8.42241C82.997 8.86646 82.7766 9.43406 82.7766 10.1234C82.7766 10.8128 82.997 11.3804 83.4344 11.8245ZM87.2172 12.3206C86.6351 12.9197 85.9106 13.2188 85.0444 13.2188C84.1783 13.2188 83.4542 12.9197 82.8723 12.3206C82.2898 11.7222 81.9993 10.9896 81.9993 10.1234C81.9993 9.25727 82.2898 8.52463 82.8723 7.92631C83.4542 7.3271 84.1783 7.02774 85.0444 7.02774C85.9059 7.02774 86.6281 7.32868 87.2134 7.93016C87.7979 8.53164 88.0903 9.2627 88.0903 10.1234C88.0903 10.9896 87.7991 11.7222 87.2172 12.3206Z" fill="white"/>
<path d="M83.4344 11.8243L83.3643 11.8938C83.8195 12.3556 84.3866 12.5902 85.0444 12.589C85.7022 12.5902 86.2705 12.3556 86.7246 11.8938C87.1822 11.4316 87.4125 10.8335 87.4117 10.1233C87.4125 9.41309 87.1822 8.81506 86.7246 8.35284C86.2705 7.89101 85.7022 7.65644 85.0444 7.65763C84.3866 7.65644 83.8195 7.89101 83.3643 8.35284C82.9075 8.81506 82.6771 9.41309 82.6779 10.1233C82.6771 10.8335 82.9075 11.4316 83.3643 11.8938L83.4344 11.8243L83.505 11.7549C83.0861 11.3285 82.8766 10.7922 82.8754 10.1233C82.8766 9.45437 83.0861 8.91807 83.505 8.4917C83.9275 8.06543 84.4329 7.85635 85.0444 7.85516C85.6559 7.85635 86.1621 8.06543 86.5837 8.4917L86.5868 8.49486L86.5837 8.4917C87.0039 8.91807 87.2134 9.45437 87.2142 10.1233C87.2134 10.7922 87.0039 11.3285 86.5837 11.7549C86.1621 12.1812 85.6559 12.3903 85.0444 12.3915C84.4329 12.3903 83.9275 12.1812 83.505 11.7549L83.4344 11.8243ZM87.2172 12.3204L87.1466 12.2518C86.5807 12.832 85.8877 13.1187 85.0444 13.1199C84.201 13.1187 83.5082 12.832 82.9434 12.2518L82.9403 12.2487L82.9434 12.2518C82.3781 11.6696 82.0992 10.9675 82.098 10.1233C82.0992 9.27916 82.3781 8.57704 82.9434 7.99481C83.5082 7.41457 84.201 7.12756 85.0444 7.12637C85.8828 7.12756 86.5738 7.41575 87.1428 7.99906C87.71 8.58395 87.9908 9.28499 87.9915 10.1233C87.9908 10.9675 87.7107 11.6696 87.1466 12.2518L87.2172 12.3204L87.2882 12.3891C87.8874 11.7742 88.1899 11.0114 88.1891 10.1233C88.1899 9.24025 87.8863 8.47906 87.2844 7.86138C86.6825 7.24133 85.9286 6.92775 85.0444 6.92884C84.1555 6.92775 83.3997 7.23985 82.8013 7.85753V7.85713C82.2014 8.47244 81.8997 9.23521 81.9005 10.1233C81.8997 11.0114 82.2014 11.7742 82.8013 12.3895V12.3891C83.3997 13.0068 84.1555 13.3182 85.0444 13.3174C85.9333 13.3182 86.6891 13.0068 87.2882 12.3891L87.2172 12.3204" fill="white"/>
<path d="M91.9645 12.3584H93.4963C93.7887 12.3584 94.0257 12.2562 94.2084 12.0514C94.3901 11.848 94.481 11.6242 94.481 11.3811C94.481 11.1385 94.3872 10.9166 94.1995 10.7153C94.0129 10.5139 93.766 10.4128 93.4627 10.4128H91.9645V12.3584ZM91.9645 9.70104H93.3472C93.6346 9.70104 93.8647 9.60652 94.0385 9.41551C94.2124 9.22529 94.2993 9.01739 94.2993 8.79092C94.2993 8.56485 94.2153 8.35724 94.0464 8.17057C93.8785 7.98262 93.6563 7.8885 93.3808 7.8885H91.9645V9.70104ZM91.204 13.0864V7.1605H93.3472C93.8104 7.1605 94.2124 7.31408 94.5511 7.61956C94.8909 7.92633 95.0608 8.31092 95.0608 8.77433C95.0608 9.05551 94.9877 9.30401 94.8405 9.51931C94.6953 9.73452 94.5008 9.89739 94.2578 10.0077V10.0405C94.5492 10.1397 94.7901 10.3109 94.9778 10.5536C95.1645 10.7966 95.2593 11.0783 95.2593 11.3981C95.2593 11.8835 95.0815 12.2862 94.725 12.6061C94.3694 12.9263 93.9487 13.0864 93.4627 13.0864H91.204" fill="white"/>
<path d="M91.9645 12.3583V12.4571H93.4963C93.8114 12.4582 94.083 12.3425 94.2815 12.1171C94.477 11.8999 94.5807 11.6492 94.5798 11.381C94.5807 11.1126 94.4731 10.8629 94.2716 10.6477C94.0672 10.4257 93.7877 10.3128 93.4627 10.3139H91.8657V12.4571H91.9645V12.3583H92.0632V10.5115H93.4627C93.7452 10.5126 93.9575 10.6021 94.1274 10.7823C94.3012 10.9705 94.3812 11.1646 94.3822 11.381C94.3812 11.599 94.3032 11.7958 94.1343 11.9856C93.9694 12.1693 93.7659 12.2579 93.4963 12.2595H91.9645V12.3583H92.0632H91.9645ZM91.9645 9.70091V9.79967H93.3472C93.6553 9.80076 93.92 9.69429 94.1116 9.48175V9.48214C94.2983 9.27839 94.398 9.04303 94.398 8.79078C94.398 8.54002 94.3022 8.30545 94.1195 8.10407V8.10446C93.9348 7.89528 93.678 7.78842 93.3807 7.7896H91.8657V9.79967H91.9645V9.70091H92.0632V7.98713H93.3807C93.6346 7.98871 93.8222 8.0697 93.9724 8.23602L93.9733 8.23671L93.9724 8.23641C94.1274 8.40925 94.1995 8.5898 94.2005 8.79078C94.1995 8.99098 94.1254 9.17232 93.9654 9.34861V9.34901C93.8094 9.51839 93.6128 9.60096 93.3472 9.60214H91.9645V9.70091H92.0632H91.9645ZM91.204 13.0863H91.3027V7.25913H93.3472C93.7887 7.25992 94.162 7.40264 94.4849 7.69281C94.8059 7.98367 94.961 8.33518 94.962 8.77419C94.962 9.03849 94.8938 9.26496 94.7595 9.46358C94.6232 9.66427 94.4444 9.8139 94.2163 9.9177L94.159 9.94397V10.0404V10.111L94.2252 10.1337C94.5008 10.2279 94.723 10.386 94.8998 10.6141L94.9007 10.6152L94.8998 10.6137C95.0736 10.8406 95.1605 11.0975 95.1605 11.398C95.1595 11.8594 94.9956 12.2286 94.6588 12.5327C94.319 12.8371 93.9269 12.9867 93.4627 12.9875H91.204V13.0863H91.3027H91.204V13.1851H93.4627C93.9704 13.1858 94.4188 13.0153 94.7911 12.6793C95.1664 12.344 95.359 11.9076 95.358 11.398C95.359 11.0589 95.2563 10.7526 95.0558 10.4933L95.0548 10.4921L95.0558 10.4929C94.8573 10.236 94.5985 10.0515 94.2894 9.94703L94.2578 10.0404H94.3565V10.0076H94.2578L94.2983 10.0975C94.5561 9.98061 94.7674 9.80501 94.9225 9.57429V9.57469C95.0805 9.34288 95.1595 9.07236 95.1595 8.77419C95.1605 8.28688 94.9768 7.86871 94.6173 7.54614L94.6153 7.54427L94.6173 7.54614C94.2617 7.22476 93.8321 7.06081 93.3472 7.0616H91.1052V13.1851H91.204V13.0863" fill="white"/>
<defs>
<linearGradient id="paint0_linear" x1="21.7776" y1="8.84887" x2="5.2023" y2="25.4242" gradientUnits="userSpaceOnUse">
<stop stop-color="#00A0FF"/>
<stop offset="0.00657445" stop-color="#00A1FF"/>
<stop offset="0.2601" stop-color="#00BEFF"/>
<stop offset="0.5122" stop-color="#00D2FF"/>
<stop offset="0.7604" stop-color="#00DFFF"/>
<stop offset="1" stop-color="#00E3FF"/>
</linearGradient>
<linearGradient id="paint1_linear" x1="33.6636" y1="20.0013" x2="9.76534" y2="20.0013" gradientUnits="userSpaceOnUse">
<stop stop-color="#FFE000"/>
<stop offset="0.4087" stop-color="#FFBD00"/>
<stop offset="0.7754" stop-color="#FFA500"/>
<stop offset="1" stop-color="#FF9C00"/>
</linearGradient>
<linearGradient id="paint2_linear" x1="24.7674" y1="22.2679" x2="2.2901" y2="44.7452" gradientUnits="userSpaceOnUse">
<stop stop-color="#FF3A44"/>
<stop offset="1" stop-color="#C31162"/>
</linearGradient>
<linearGradient id="paint3_linear" x1="7.45414" y1="0.421125" x2="17.4912" y2="10.4582" gradientUnits="userSpaceOnUse">
<stop stop-color="#32A071"/>
<stop offset="0.0685" stop-color="#2DA771"/>
<stop offset="0.4762" stop-color="#15CF74"/>
<stop offset="0.8009" stop-color="#06E775"/>
<stop offset="1" stop-color="#00F076"/>
</linearGradient>
<linearGradient id="paint4_linear" x1="33.6633" y1="20.0015" x2="9.76615" y2="20.0015" gradientUnits="userSpaceOnUse">
<stop stop-color="#CCB300"/>
<stop offset="0.4087" stop-color="#CC9700"/>
<stop offset="0.7754" stop-color="#CC8400"/>
<stop offset="1" stop-color="#CC7D00"/>
</linearGradient>
<linearGradient id="paint5_linear" x1="24.7674" y1="22.2679" x2="2.29009" y2="44.7452" gradientUnits="userSpaceOnUse">
<stop stop-color="#CC2E36"/>
<stop offset="1" stop-color="#9C0E4E"/>
</linearGradient>
<linearGradient id="paint6_linear" x1="21.7776" y1="8.84892" x2="5.20232" y2="25.4243" gradientUnits="userSpaceOnUse">
<stop stop-color="#008DE0"/>
<stop offset="0.00657445" stop-color="#008DE0"/>
<stop offset="0.2601" stop-color="#00A7E0"/>
<stop offset="0.5122" stop-color="#00B8E0"/>
<stop offset="0.7604" stop-color="#00C4E0"/>
<stop offset="1" stop-color="#00C7E0"/>
</linearGradient>
<linearGradient id="paint7_linear" x1="24.7677" y1="22.2679" x2="2.29097" y2="44.7457" gradientUnits="userSpaceOnUse">
<stop stop-color="#E0333C"/>
<stop offset="1" stop-color="#AB0F56"/>
</linearGradient>
<linearGradient id="paint8_linear" x1="33.6636" y1="20.0014" x2="9.76535" y2="20.0014" gradientUnits="userSpaceOnUse">
<stop stop-color="#E0C500"/>
<stop offset="0.4087" stop-color="#E0A600"/>
<stop offset="0.7754" stop-color="#E09100"/>
<stop offset="1" stop-color="#E08900"/>
</linearGradient>
<linearGradient id="paint9_linear" x1="33.6636" y1="20.0015" x2="9.76533" y2="20.0015" gradientUnits="userSpaceOnUse">
<stop stop-color="#FFE840"/>
<stop offset="0.4087" stop-color="#FFCE40"/>
<stop offset="0.7754" stop-color="#FFBC40"/>
<stop offset="1" stop-color="#FFB540"/>
</linearGradient>
<linearGradient id="paint10_linear" x1="21.7776" y1="8.84901" x2="5.2023" y2="25.4243" gradientUnits="userSpaceOnUse">
<stop stop-color="#40B8FF"/>
<stop offset="0.00657445" stop-color="#40B9FF"/>
<stop offset="0.2601" stop-color="#40CEFF"/>
<stop offset="0.5122" stop-color="#40DDFF"/>
<stop offset="0.7604" stop-color="#40E7FF"/>
<stop offset="1" stop-color="#40EAFF"/>
</linearGradient>
<linearGradient id="paint11_linear" x1="7.45412" y1="0.42104" x2="17.4912" y2="10.4581" gradientUnits="userSpaceOnUse">
<stop stop-color="#65B895"/>
<stop offset="0.0685" stop-color="#62BD95"/>
<stop offset="0.4762" stop-color="#50DB97"/>
<stop offset="0.8009" stop-color="#44ED98"/>
<stop offset="1" stop-color="#40F498"/>
</linearGradient>
</defs>
</svg>
