<svg width="160" height="46" viewBox="0 0 160 46" fill="none" xmlns="http://www.w3.org/2000/svg">
<path d="M59.7134 4.60449L65.5666 42.9454L70.8322 42.9283L65.0018 4.61589L59.7134 4.60449Z" fill="white"/>
<path d="M59.468 4.60449H50.5056V42.8201H59.468V4.60449Z" fill="white"/>
<path d="M32.9459 4.60449H0V42.8201H29.6598L32.9459 4.60449Z" fill="white"/>
<path d="M37.6011 42.8201H47.6075L47.6474 4.60449H40.8814L37.6011 42.8201Z" fill="white"/>
<path d="M90.0007 22.2933H86.8973V15.0503C85.6503 15.8735 84.1814 16.297 82.687 16.2641C80.0114 16.2641 77.3187 14.828 77.3187 10.6224V4.6615H80.4165V9.75045C80.4165 12.5713 81.78 13.3748 83.52 13.3748C84.7353 13.3454 85.913 12.9479 86.8973 12.2351V4.6615H90.0007V22.2933Z" fill="white"/>
<path d="M93.3666 22.2933V4.6615H96.4701V17.2044L105.723 4.6615H108.445V22.2933H105.347V9.77324L96.0935 22.2933H93.3666Z" fill="white"/>
<path d="M111.149 4.6615H125.696V7.55644H119.974V22.2933H116.871V7.55644H111.149V4.6615Z" fill="white"/>
<path d="M130.5 4.61023H133.227L140.689 22.2762H137.386L135.543 17.7686H128.007L126.164 22.2762H123.038L130.5 4.61023ZM129.193 14.8679H134.362L131.789 8.59933L129.193 14.8679Z" fill="white"/>
<path d="M142.577 22.2933V4.6615H145.675V17.2044L154.928 4.6615H157.655V22.2933H154.552V9.77324L145.298 22.2933H142.577Z" fill="white"/>
<path d="M77.1874 25.2225H87.1482V28.1175H80.2852V42.8486H77.1874V25.2225Z" fill="white"/>
<path d="M154.957 0H145.915V2.91204H152.857L154.957 0Z" fill="white"/>
<path d="M97.1832 24.9434C102.426 24.9434 106.385 28.5449 106.385 34.0613C106.385 39.3497 102.426 43.1792 97.1832 43.1792C91.9404 43.1792 88.004 39.5834 88.004 34.0613C88.004 28.9325 91.7635 24.9434 97.1832 24.9434ZM97.1832 40.2273C100.886 40.2273 103.105 37.509 103.105 34.0328C103.105 30.3799 100.509 27.8383 97.1832 27.8383C93.8572 27.8383 91.2843 30.3799 91.2843 34.0328C91.2843 37.566 93.88 40.2273 97.1832 40.2273Z" fill="white"/>
<path d="M109.226 42.8486V25.2225C110.208 25.2225 113.003 25.1655 114.241 25.1655C119.432 25.1655 121.087 27.9408 121.087 30.8642C121.087 33.8618 118.845 36.563 114.629 36.563C114.098 36.563 113.094 36.563 112.347 36.4889V42.86L109.226 42.8486ZM112.324 28.1175V33.5312C113.06 33.6053 113.813 33.6566 114.52 33.6566C116.357 33.6566 117.795 32.7733 117.795 30.8073C117.795 28.9723 116.654 28.0662 114.543 28.0662C113.916 28.0662 113.157 28.0662 112.324 28.1175Z" fill="white"/>
<path d="M132.383 24.9434C137.625 24.9434 141.585 28.5449 141.585 34.0613C141.585 39.3497 137.625 43.1792 132.383 43.1792C127.14 43.1792 123.203 39.5834 123.203 34.0613C123.203 28.9325 126.963 24.9434 132.383 24.9434ZM132.383 40.2273C136.085 40.2273 138.304 37.509 138.304 34.0328C138.304 30.3799 135.708 27.8383 132.383 27.8383C129.057 27.8383 126.478 30.3799 126.478 34.0328C126.478 37.566 129.079 40.2273 132.383 40.2273Z" fill="white"/>
<path d="M141.853 39.9537H144.254C146.28 31.1776 147.501 25.2168 147.501 25.2168H157.587V39.9537H160V46H157.102V42.8486H144.756V46H141.853V39.9537ZM147.346 39.9537H154.512V28.1174H149.845C149.845 28.1174 148.744 33.8162 147.346 39.9537Z" fill="white"/>
</svg>
