<?xml version="1.0" encoding="utf-8"?>
<!-- Generator: Adobe Illustrator 16.0.0, SVG Export Plug-In . SVG Version: 6.00 Build 0)  -->
<!DOCTYPE svg PUBLIC "-//W3C//DTD SVG 1.1//EN" "http://www.w3.org/Graphics/SVG/1.1/DTD/svg11.dtd">
<svg version="1.1" id="Слой_1" xmlns="http://www.w3.org/2000/svg" xmlns:xlink="http://www.w3.org/1999/xlink" x="0px" y="0px"
	 width="44px" height="28px" viewBox="0 0 44 28" enable-background="new 0 0 44 28" xml:space="preserve">
<g>
	<g>
		<path fill="#FFFFFF" d="M44,26c0,1.1-0.9,2-2,2H2c-1.1,0-2-0.9-2-2V2c0-1.1,0.9-2,2-2h40c1.1,0,2,0.9,2,2V26z"/>
	</g>
	<g>
		<rect x="18.942" y="8.502" fill="#FF5F00" width="6.115" height="10.996"/>
		<path id="XMLID_5_" fill="#EB001B" d="M19.332,14.002c0-2.229,1.042-4.227,2.669-5.5C20.816,7.564,19.313,7,17.687,7
			c-3.871,0-7,3.129-7,7.002c0,3.852,3.129,6.998,7,6.998c1.626,0,3.129-0.565,4.313-1.502
			C20.374,18.207,19.332,16.228,19.332,14.002z"/>
		<path fill="#F79E1B" d="M33.313,14.002c0,3.852-3.129,6.998-7,6.998c-1.625,0-3.129-0.565-4.312-1.502
			c1.625-1.273,2.667-3.271,2.667-5.496c0-2.229-1.042-4.227-2.667-5.5C23.184,7.564,24.688,7,26.313,7
			C30.184,7,33.313,10.129,33.313,14.002z"/>
	</g>
</g>
</svg>
