<?xml version="1.0" encoding="utf-8"?>
<!-- Generator: Adobe Illustrator 16.0.0, SVG Export Plug-In . SVG Version: 6.00 Build 0)  -->
<!DOCTYPE svg PUBLIC "-//W3C//DTD SVG 1.1//EN" "http://www.w3.org/Graphics/SVG/1.1/DTD/svg11.dtd">
<svg version="1.1" id="Слой_1" xmlns="http://www.w3.org/2000/svg" xmlns:xlink="http://www.w3.org/1999/xlink" x="0px" y="0px"
	 width="44px" height="28px" viewBox="0 0 44 28" enable-background="new 0 0 44 28" xml:space="preserve">
<g>
	<g>
		<path fill="#FFFFFF" d="M44,26c0,1.1-0.9,2-2,2H2c-1.1,0-2-0.9-2-2V2c0-1.1,0.9-2,2-2h40c1.1,0,2,0.9,2,2V26z"/>
	</g>
	<g>
		<g id="g5_3_">
			<path id="path7_3_" fill="#4DB45E" d="M13.856,9v0.004c-0.005,0-1.379-0.004-1.747,1.312c-0.335,1.204-1.284,4.532-1.31,4.624
				h-0.263c0,0-0.969-3.401-1.31-4.629C8.86,8.996,7.48,9,7.48,9H4.336v10H7.48v-5.938h0.131h0.131L9.577,19h2.184l1.833-5.934
				h0.263V19H17V9H13.856z"/>
		</g>
		<g id="g9_3_">
			<path id="path11_3_" fill="#4DB45E" d="M25.34,9c0,0-0.92,0.082-1.354,1.049l-2.226,4.891h-0.263V9h-3.144v10h2.969l0,0
				c0,0,0.965-0.088,1.398-1.047l2.183-4.892h0.262V19h3.145V9H25.34z"/>
		</g>
		<g id="g13_3_">
			<path id="path15_3_" fill="#4DB45E" d="M29.707,13.541V19h3.145v-3.188h3.406c1.484,0,2.742-0.949,3.209-2.271H29.707z"/>
		</g>
		<g id="g17_3_">
			
				<linearGradient id="path24_1_" gradientUnits="userSpaceOnUse" x1="185.1357" y1="-261.623" x2="195.5342" y2="-261.623" gradientTransform="matrix(1 0 0 -1 -155.8701 -250.5703)">
				<stop  offset="0.3" style="stop-color:#00B4E6"/>
				<stop  offset="1" style="stop-color:#088CCB"/>
			</linearGradient>
			<path id="path24_3_" fill="url(#path24_1_)" d="M36.258,9h-6.992c0.35,1.904,1.777,3.434,3.625,3.93l0,0
				c0.42,0.114,0.861,0.176,1.314,0.176h5.389c0.049-0.228,0.07-0.459,0.07-0.698C39.664,10.524,38.139,9,36.258,9z"/>
		</g>
	</g>
</g>
</svg>
