<svg fill="none" xmlns="http://www.w3.org/2000/svg" viewBox="0 0 205 164" width="205" height="164">

  <g class="social light-gray" fill="black" fill-opacity="0.1">

    <g class="tw">
      <path d="M19.2 1.895C18.49 2.216 17.73 2.435 16.935 2.533C17.749 2.032 18.373 1.241 18.664 0.299C17.907 0.759 17.061 1.096 16.166 1.277C15.447 0.494 14.422 0 13.29 0C11.116 0 9.352 1.811 9.352 4.039C9.352 4.357 9.386 4.664 9.451 4.963C6.18 4.795 3.279 3.185 1.335 0.74C0.997 1.334 0.802 2.031 0.802 2.77C0.802 4.173 1.499 5.409 2.554 6.13C1.909 6.111 1.303 5.931 0.771 5.626C0.771 5.643 0.771 5.66 0.771 5.674C0.771 7.637 2.131 9.266 3.93 9.638C3.6 9.731 3.253 9.782 2.893 9.782C2.637 9.782 2.389 9.758 2.15 9.709C2.653 11.314 4.11 12.481 5.832 12.514C4.482 13.597 2.785 14.244 0.938 14.244C0.622 14.244 0.31 14.223 2.28882e-08 14.185C1.743 15.331 3.812 16 6.038 16C13.279 16 17.242 9.847 17.242 4.508C17.242 4.333 17.238 4.159 17.231 3.987C18 3.417 18.67 2.704 19.2 1.895Z" transform="translate(10.7051 12.8367)"/>
    </g>
    <g transform="translate(41)" class="vk">
      <path d="M19.742 0.813C19.883 0.344 19.742 0 19.073 0H16.863C16.301 0 16.042 0.298 15.901 0.625C15.901 0.625 14.776 3.366 13.184 5.146C12.669 5.66 12.435 5.826 12.155 5.826C12.013 5.826 11.803 5.66 11.803 5.193V0.814C11.803 0.252 11.647 0.0010004 11.178 0.0010004H7.704C7.353 0.0010004 7.141 0.263 7.141 0.509C7.141 1.042 7.937 1.165 8.019 2.663V5.919C8.019 6.632 7.89 6.764 7.61 6.764C6.86 6.764 5.037 4.011 3.957 0.861C3.745 0.248 3.533 0 2.968 0H0.758C0.126 0 -2.36511e-07 0.298 -2.36511e-07 0.625C-2.36511e-07 1.212 0.75 4.115 3.49 7.955C5.317 10.579 7.89 12 10.232 12C11.637 12 11.811 11.685 11.811 11.142V9.159C11.811 8.528 11.944 8.401 12.389 8.401C12.717 8.401 13.279 8.565 14.589 9.83C16.087 11.328 16.334 12 17.178 12H19.389C20.02 12 20.336 11.685 20.154 11.062C19.955 10.439 19.24 9.54 18.29 8.47C17.774 7.861 17.003 7.205 16.768 6.879C16.441 6.455 16.534 6.267 16.768 5.895C16.767 5.896 19.46 2.102 19.742 0.813Z" transform="translate(10.4463 14.8367)"/>
    </g>
    <g transform="translate(82)" class="fb">
      <path d="M9.91821e-08 5.953H1.844V5.109V4.281V4.143C1.844 3.345 1.864 2.117 2.437 1.353C3.043 0.547 3.872 0 5.299 0C7.627 0 8.609 0.332 8.609 0.332L8.144 3.092C8.144 3.092 7.378 2.868 6.661 2.868C5.944 2.868 5.3 3.125 5.3 3.848V4.143V5.109V5.953H8.243L8.037 8.644H5.3V18H1.844V8.645H9.91821e-08V5.953Z" transform="translate(16 11.8367)"/>
    </g>
    <g transform="translate(123)" class="ok">
      <path fill-rule="evenodd" clip-rule="evenodd" d="M1.7646 18C1.5746 17.879 1.3626 17.784 1.2016 17.631C0.693605 17.152 0.689604 16.547 1.1776 16.051C2.1936 15.015 3.2166 13.982 4.2366 12.947C4.3096 12.875 4.3786 12.795 4.4546 12.715C3.7976 12.565 3.1726 12.444 2.5596 12.274C1.7536 12.052 1.0636 11.6 0.435604 11.055C0.115604 10.78 -0.0943958 10.442 0.0426042 9.97601C0.183604 9.50801 0.438604 9.13101 0.941604 9.10601C1.2356 9.08901 1.5936 9.17601 1.8246 9.35401C2.8056 10.097 3.9206 10.432 5.1156 10.475C6.38161 10.516 7.5916 10.247 8.6446 9.47001C8.96161 9.23501 9.2966 9.03501 9.7046 9.08901C10.1936 9.15001 10.4576 9.474 10.6086 9.92801C10.7546 10.371 10.6186 10.75 10.2816 10.994C9.7346 11.4 9.1756 11.826 8.5596 12.086C7.8406 12.389 7.0496 12.526 6.2716 12.74C6.3036 12.777 6.3656 12.857 6.4366 12.927C7.4196 13.926 8.3806 14.949 9.3996 15.912C10.2276 16.695 9.7956 17.68 9.0136 17.938C8.9916 17.949 8.97361 17.98 8.95261 18C8.81461 18 8.6746 18 8.5386 18C8.2576 17.787 7.9476 17.604 7.6996 17.357C6.9106 16.589 6.1456 15.795 5.3516 14.996C5.2546 15.088 5.1666 15.166 5.0846 15.25C4.4146 15.929 3.7526 16.615 3.0696 17.28C2.7976 17.545 2.4776 17.76 2.1786 18C2.0436 18 1.9036 18 1.7646 18ZM9.82061 4.57601C9.8266 2.06701 7.8146 0.00600578 5.3516 5.78461e-06C2.8686 -0.00399422 0.822604 2.06701 0.841604 4.56601C0.860604 7.06201 2.8696 9.09301 5.3286 9.09301C7.7896 9.09501 9.81361 7.05901 9.82061 4.57601ZM7.5616 4.57601C7.5496 5.81601 6.5386 6.81801 5.3106 6.80501C4.0786 6.79201 3.1046 5.78601 3.1106 4.53501C3.1116 3.28201 4.0966 2.29401 5.3376 2.29801C6.5826 2.30101 7.5726 3.31501 7.5616 4.57601Z" transform="translate(15.2168 11.8367)"/>
    </g>
    <g transform="translate(164)" class="gp">
      <path d="M4.5 3V0H3V3H0V4.5H3V7.5H4.5V4.5H7.5V3H4.5Z" transform="translate(24.8047 16.3367)"/>
      <path d="M7.5 6V9H11.7435C11.124 10.746 9.456 12 7.5 12C5.019 12 3 9.981 3 7.5C3 5.019 5.019 3 7.5 3C8.5755 3 9.6105 3.3855 10.4145 4.086L12.3855 1.824C11.0355 0.648 9.3015 0 7.5 0C3.3645 0 0 3.3645 0 7.5C0 11.6355 3.3645 15 7.5 15C11.6355 15 15 11.6355 15 7.5V6H7.5Z" transform="translate(8.30469 13.3367)"/>
    </g>
  </g>

  <g class="social dark-gray" fill="black" fill-opacity="0.5" transform="translate(0, 41)">

    <g class="tw">
      <path d="M19.2 1.895C18.49 2.216 17.73 2.435 16.935 2.533C17.749 2.032 18.373 1.241 18.664 0.299C17.907 0.759 17.061 1.096 16.166 1.277C15.447 0.494 14.422 0 13.29 0C11.116 0 9.352 1.811 9.352 4.039C9.352 4.357 9.386 4.664 9.451 4.963C6.18 4.795 3.279 3.185 1.335 0.74C0.997 1.334 0.802 2.031 0.802 2.77C0.802 4.173 1.499 5.409 2.554 6.13C1.909 6.111 1.303 5.931 0.771 5.626C0.771 5.643 0.771 5.66 0.771 5.674C0.771 7.637 2.131 9.266 3.93 9.638C3.6 9.731 3.253 9.782 2.893 9.782C2.637 9.782 2.389 9.758 2.15 9.709C2.653 11.314 4.11 12.481 5.832 12.514C4.482 13.597 2.785 14.244 0.938 14.244C0.622 14.244 0.31 14.223 2.28882e-08 14.185C1.743 15.331 3.812 16 6.038 16C13.279 16 17.242 9.847 17.242 4.508C17.242 4.333 17.238 4.159 17.231 3.987C18 3.417 18.67 2.704 19.2 1.895Z" transform="translate(10.7051 12.8367)"/>
    </g>
    <g transform="translate(41)" class="vk">
      <path d="M19.742 0.813C19.883 0.344 19.742 0 19.073 0H16.863C16.301 0 16.042 0.298 15.901 0.625C15.901 0.625 14.776 3.366 13.184 5.146C12.669 5.66 12.435 5.826 12.155 5.826C12.013 5.826 11.803 5.66 11.803 5.193V0.814C11.803 0.252 11.647 0.0010004 11.178 0.0010004H7.704C7.353 0.0010004 7.141 0.263 7.141 0.509C7.141 1.042 7.937 1.165 8.019 2.663V5.919C8.019 6.632 7.89 6.764 7.61 6.764C6.86 6.764 5.037 4.011 3.957 0.861C3.745 0.248 3.533 0 2.968 0H0.758C0.126 0 -2.36511e-07 0.298 -2.36511e-07 0.625C-2.36511e-07 1.212 0.75 4.115 3.49 7.955C5.317 10.579 7.89 12 10.232 12C11.637 12 11.811 11.685 11.811 11.142V9.159C11.811 8.528 11.944 8.401 12.389 8.401C12.717 8.401 13.279 8.565 14.589 9.83C16.087 11.328 16.334 12 17.178 12H19.389C20.02 12 20.336 11.685 20.154 11.062C19.955 10.439 19.24 9.54 18.29 8.47C17.774 7.861 17.003 7.205 16.768 6.879C16.441 6.455 16.534 6.267 16.768 5.895C16.767 5.896 19.46 2.102 19.742 0.813Z" transform="translate(10.4463 14.8367)"/>
    </g>
    <g transform="translate(82)" class="fb">
      <path d="M9.91821e-08 5.953H1.844V5.109V4.281V4.143C1.844 3.345 1.864 2.117 2.437 1.353C3.043 0.547 3.872 0 5.299 0C7.627 0 8.609 0.332 8.609 0.332L8.144 3.092C8.144 3.092 7.378 2.868 6.661 2.868C5.944 2.868 5.3 3.125 5.3 3.848V4.143V5.109V5.953H8.243L8.037 8.644H5.3V18H1.844V8.645H9.91821e-08V5.953Z" transform="translate(16 11.8367)"/>
    </g>
    <g transform="translate(123)" class="ok">
      <path fill-rule="evenodd" clip-rule="evenodd" d="M1.7646 18C1.5746 17.879 1.3626 17.784 1.2016 17.631C0.693605 17.152 0.689604 16.547 1.1776 16.051C2.1936 15.015 3.2166 13.982 4.2366 12.947C4.3096 12.875 4.3786 12.795 4.4546 12.715C3.7976 12.565 3.1726 12.444 2.5596 12.274C1.7536 12.052 1.0636 11.6 0.435604 11.055C0.115604 10.78 -0.0943958 10.442 0.0426042 9.97601C0.183604 9.50801 0.438604 9.13101 0.941604 9.10601C1.2356 9.08901 1.5936 9.17601 1.8246 9.35401C2.8056 10.097 3.9206 10.432 5.1156 10.475C6.38161 10.516 7.5916 10.247 8.6446 9.47001C8.96161 9.23501 9.2966 9.03501 9.7046 9.08901C10.1936 9.15001 10.4576 9.474 10.6086 9.92801C10.7546 10.371 10.6186 10.75 10.2816 10.994C9.7346 11.4 9.1756 11.826 8.5596 12.086C7.8406 12.389 7.0496 12.526 6.2716 12.74C6.3036 12.777 6.3656 12.857 6.4366 12.927C7.4196 13.926 8.3806 14.949 9.3996 15.912C10.2276 16.695 9.7956 17.68 9.0136 17.938C8.9916 17.949 8.97361 17.98 8.95261 18C8.81461 18 8.6746 18 8.5386 18C8.2576 17.787 7.9476 17.604 7.6996 17.357C6.9106 16.589 6.1456 15.795 5.3516 14.996C5.2546 15.088 5.1666 15.166 5.0846 15.25C4.4146 15.929 3.7526 16.615 3.0696 17.28C2.7976 17.545 2.4776 17.76 2.1786 18C2.0436 18 1.9036 18 1.7646 18ZM9.82061 4.57601C9.8266 2.06701 7.8146 0.00600578 5.3516 5.78461e-06C2.8686 -0.00399422 0.822604 2.06701 0.841604 4.56601C0.860604 7.06201 2.8696 9.09301 5.3286 9.09301C7.7896 9.09501 9.81361 7.05901 9.82061 4.57601ZM7.5616 4.57601C7.5496 5.81601 6.5386 6.81801 5.3106 6.80501C4.0786 6.79201 3.1046 5.78601 3.1106 4.53501C3.1116 3.28201 4.0966 2.29401 5.3376 2.29801C6.5826 2.30101 7.5726 3.31501 7.5616 4.57601Z" transform="translate(15.2168 11.8367)"/>
    </g>
    <g transform="translate(164)" class="gp">
      <path d="M4.5 3V0H3V3H0V4.5H3V7.5H4.5V4.5H7.5V3H4.5Z" transform="translate(24.8047 16.3367)"/>
      <path d="M7.5 6V9H11.7435C11.124 10.746 9.456 12 7.5 12C5.019 12 3 9.981 3 7.5C3 5.019 5.019 3 7.5 3C8.5755 3 9.6105 3.3855 10.4145 4.086L12.3855 1.824C11.0355 0.648 9.3015 0 7.5 0C3.3645 0 0 3.3645 0 7.5C0 11.6355 3.3645 15 7.5 15C11.6355 15 15 11.6355 15 7.5V6H7.5Z" transform="translate(8.30469 13.3367)"/>
    </g>
  </g>

  <g class="social blue" fill="#26A9E0" transform="translate(0, 82)">
    <g class="tw">
      <path d="M19.2 1.895C18.49 2.216 17.73 2.435 16.935 2.533C17.749 2.032 18.373 1.241 18.664 0.299C17.907 0.759 17.061 1.096 16.166 1.277C15.447 0.494 14.422 0 13.29 0C11.116 0 9.352 1.811 9.352 4.039C9.352 4.357 9.386 4.664 9.451 4.963C6.18 4.795 3.279 3.185 1.335 0.74C0.997 1.334 0.802 2.031 0.802 2.77C0.802 4.173 1.499 5.409 2.554 6.13C1.909 6.111 1.303 5.931 0.771 5.626C0.771 5.643 0.771 5.66 0.771 5.674C0.771 7.637 2.131 9.266 3.93 9.638C3.6 9.731 3.253 9.782 2.893 9.782C2.637 9.782 2.389 9.758 2.15 9.709C2.653 11.314 4.11 12.481 5.832 12.514C4.482 13.597 2.785 14.244 0.938 14.244C0.622 14.244 0.31 14.223 2.28882e-08 14.185C1.743 15.331 3.812 16 6.038 16C13.279 16 17.242 9.847 17.242 4.508C17.242 4.333 17.238 4.159 17.231 3.987C18 3.417 18.67 2.704 19.2 1.895Z" transform="translate(10.7051 12.8367)"/>
    </g>
    <g transform="translate(41)" class="vk">
      <path d="M19.742 0.813C19.883 0.344 19.742 0 19.073 0H16.863C16.301 0 16.042 0.298 15.901 0.625C15.901 0.625 14.776 3.366 13.184 5.146C12.669 5.66 12.435 5.826 12.155 5.826C12.013 5.826 11.803 5.66 11.803 5.193V0.814C11.803 0.252 11.647 0.0010004 11.178 0.0010004H7.704C7.353 0.0010004 7.141 0.263 7.141 0.509C7.141 1.042 7.937 1.165 8.019 2.663V5.919C8.019 6.632 7.89 6.764 7.61 6.764C6.86 6.764 5.037 4.011 3.957 0.861C3.745 0.248 3.533 0 2.968 0H0.758C0.126 0 -2.36511e-07 0.298 -2.36511e-07 0.625C-2.36511e-07 1.212 0.75 4.115 3.49 7.955C5.317 10.579 7.89 12 10.232 12C11.637 12 11.811 11.685 11.811 11.142V9.159C11.811 8.528 11.944 8.401 12.389 8.401C12.717 8.401 13.279 8.565 14.589 9.83C16.087 11.328 16.334 12 17.178 12H19.389C20.02 12 20.336 11.685 20.154 11.062C19.955 10.439 19.24 9.54 18.29 8.47C17.774 7.861 17.003 7.205 16.768 6.879C16.441 6.455 16.534 6.267 16.768 5.895C16.767 5.896 19.46 2.102 19.742 0.813Z" transform="translate(10.4463 14.8367)"/>
    </g>
    <g transform="translate(82)" class="fb">
      <path d="M9.91821e-08 5.953H1.844V5.109V4.281V4.143C1.844 3.345 1.864 2.117 2.437 1.353C3.043 0.547 3.872 0 5.299 0C7.627 0 8.609 0.332 8.609 0.332L8.144 3.092C8.144 3.092 7.378 2.868 6.661 2.868C5.944 2.868 5.3 3.125 5.3 3.848V4.143V5.109V5.953H8.243L8.037 8.644H5.3V18H1.844V8.645H9.91821e-08V5.953Z" transform="translate(16 11.8367)"/>
    </g>
    <g transform="translate(123)" class="ok">
      <path fill-rule="evenodd" clip-rule="evenodd" d="M1.7646 18C1.5746 17.879 1.3626 17.784 1.2016 17.631C0.693605 17.152 0.689604 16.547 1.1776 16.051C2.1936 15.015 3.2166 13.982 4.2366 12.947C4.3096 12.875 4.3786 12.795 4.4546 12.715C3.7976 12.565 3.1726 12.444 2.5596 12.274C1.7536 12.052 1.0636 11.6 0.435604 11.055C0.115604 10.78 -0.0943958 10.442 0.0426042 9.97601C0.183604 9.50801 0.438604 9.13101 0.941604 9.10601C1.2356 9.08901 1.5936 9.17601 1.8246 9.35401C2.8056 10.097 3.9206 10.432 5.1156 10.475C6.38161 10.516 7.5916 10.247 8.6446 9.47001C8.96161 9.23501 9.2966 9.03501 9.7046 9.08901C10.1936 9.15001 10.4576 9.474 10.6086 9.92801C10.7546 10.371 10.6186 10.75 10.2816 10.994C9.7346 11.4 9.1756 11.826 8.5596 12.086C7.8406 12.389 7.0496 12.526 6.2716 12.74C6.3036 12.777 6.3656 12.857 6.4366 12.927C7.4196 13.926 8.3806 14.949 9.3996 15.912C10.2276 16.695 9.7956 17.68 9.0136 17.938C8.9916 17.949 8.97361 17.98 8.95261 18C8.81461 18 8.6746 18 8.5386 18C8.2576 17.787 7.9476 17.604 7.6996 17.357C6.9106 16.589 6.1456 15.795 5.3516 14.996C5.2546 15.088 5.1666 15.166 5.0846 15.25C4.4146 15.929 3.7526 16.615 3.0696 17.28C2.7976 17.545 2.4776 17.76 2.1786 18C2.0436 18 1.9036 18 1.7646 18ZM9.82061 4.57601C9.8266 2.06701 7.8146 0.00600578 5.3516 5.78461e-06C2.8686 -0.00399422 0.822604 2.06701 0.841604 4.56601C0.860604 7.06201 2.8696 9.09301 5.3286 9.09301C7.7896 9.09501 9.81361 7.05901 9.82061 4.57601ZM7.5616 4.57601C7.5496 5.81601 6.5386 6.81801 5.3106 6.80501C4.0786 6.79201 3.1046 5.78601 3.1106 4.53501C3.1116 3.28201 4.0966 2.29401 5.3376 2.29801C6.5826 2.30101 7.5726 3.31501 7.5616 4.57601Z" transform="translate(15.2168 11.8367)"/>
    </g>
    <g transform="translate(164)" class="gp">
      <path d="M4.5 3V0H3V3H0V4.5H3V7.5H4.5V4.5H7.5V3H4.5Z" transform="translate(24.8047 16.3367)"/>
      <path d="M7.5 6V9H11.7435C11.124 10.746 9.456 12 7.5 12C5.019 12 3 9.981 3 7.5C3 5.019 5.019 3 7.5 3C8.5755 3 9.6105 3.3855 10.4145 4.086L12.3855 1.824C11.0355 0.648 9.3015 0 7.5 0C3.3645 0 0 3.3645 0 7.5C0 11.6355 3.3645 15 7.5 15C11.6355 15 15 11.6355 15 7.5V6H7.5Z" transform="translate(8.30469 13.3367)"/>
    </g>
  </g>

  <g class="social white" fill="#ffffff" transform="translate(0, 123)">
    <g class="tw">
      <path d="M19.2 1.895C18.49 2.216 17.73 2.435 16.935 2.533C17.749 2.032 18.373 1.241 18.664 0.299C17.907 0.759 17.061 1.096 16.166 1.277C15.447 0.494 14.422 0 13.29 0C11.116 0 9.352 1.811 9.352 4.039C9.352 4.357 9.386 4.664 9.451 4.963C6.18 4.795 3.279 3.185 1.335 0.74C0.997 1.334 0.802 2.031 0.802 2.77C0.802 4.173 1.499 5.409 2.554 6.13C1.909 6.111 1.303 5.931 0.771 5.626C0.771 5.643 0.771 5.66 0.771 5.674C0.771 7.637 2.131 9.266 3.93 9.638C3.6 9.731 3.253 9.782 2.893 9.782C2.637 9.782 2.389 9.758 2.15 9.709C2.653 11.314 4.11 12.481 5.832 12.514C4.482 13.597 2.785 14.244 0.938 14.244C0.622 14.244 0.31 14.223 2.28882e-08 14.185C1.743 15.331 3.812 16 6.038 16C13.279 16 17.242 9.847 17.242 4.508C17.242 4.333 17.238 4.159 17.231 3.987C18 3.417 18.67 2.704 19.2 1.895Z" transform="translate(10.7051 12.8367)"/>
    </g>
    <g transform="translate(41)" class="vk">
      <path d="M19.742 0.813C19.883 0.344 19.742 0 19.073 0H16.863C16.301 0 16.042 0.298 15.901 0.625C15.901 0.625 14.776 3.366 13.184 5.146C12.669 5.66 12.435 5.826 12.155 5.826C12.013 5.826 11.803 5.66 11.803 5.193V0.814C11.803 0.252 11.647 0.0010004 11.178 0.0010004H7.704C7.353 0.0010004 7.141 0.263 7.141 0.509C7.141 1.042 7.937 1.165 8.019 2.663V5.919C8.019 6.632 7.89 6.764 7.61 6.764C6.86 6.764 5.037 4.011 3.957 0.861C3.745 0.248 3.533 0 2.968 0H0.758C0.126 0 -2.36511e-07 0.298 -2.36511e-07 0.625C-2.36511e-07 1.212 0.75 4.115 3.49 7.955C5.317 10.579 7.89 12 10.232 12C11.637 12 11.811 11.685 11.811 11.142V9.159C11.811 8.528 11.944 8.401 12.389 8.401C12.717 8.401 13.279 8.565 14.589 9.83C16.087 11.328 16.334 12 17.178 12H19.389C20.02 12 20.336 11.685 20.154 11.062C19.955 10.439 19.24 9.54 18.29 8.47C17.774 7.861 17.003 7.205 16.768 6.879C16.441 6.455 16.534 6.267 16.768 5.895C16.767 5.896 19.46 2.102 19.742 0.813Z" transform="translate(10.4463 14.8367)"/>
    </g>
    <g transform="translate(82)" class="fb">
      <path d="M9.91821e-08 5.953H1.844V5.109V4.281V4.143C1.844 3.345 1.864 2.117 2.437 1.353C3.043 0.547 3.872 0 5.299 0C7.627 0 8.609 0.332 8.609 0.332L8.144 3.092C8.144 3.092 7.378 2.868 6.661 2.868C5.944 2.868 5.3 3.125 5.3 3.848V4.143V5.109V5.953H8.243L8.037 8.644H5.3V18H1.844V8.645H9.91821e-08V5.953Z" transform="translate(16 11.8367)"/>
    </g>
    <g transform="translate(123)" class="ok">
      <path fill-rule="evenodd" clip-rule="evenodd" d="M1.7646 18C1.5746 17.879 1.3626 17.784 1.2016 17.631C0.693605 17.152 0.689604 16.547 1.1776 16.051C2.1936 15.015 3.2166 13.982 4.2366 12.947C4.3096 12.875 4.3786 12.795 4.4546 12.715C3.7976 12.565 3.1726 12.444 2.5596 12.274C1.7536 12.052 1.0636 11.6 0.435604 11.055C0.115604 10.78 -0.0943958 10.442 0.0426042 9.97601C0.183604 9.50801 0.438604 9.13101 0.941604 9.10601C1.2356 9.08901 1.5936 9.17601 1.8246 9.35401C2.8056 10.097 3.9206 10.432 5.1156 10.475C6.38161 10.516 7.5916 10.247 8.6446 9.47001C8.96161 9.23501 9.2966 9.03501 9.7046 9.08901C10.1936 9.15001 10.4576 9.474 10.6086 9.92801C10.7546 10.371 10.6186 10.75 10.2816 10.994C9.7346 11.4 9.1756 11.826 8.5596 12.086C7.8406 12.389 7.0496 12.526 6.2716 12.74C6.3036 12.777 6.3656 12.857 6.4366 12.927C7.4196 13.926 8.3806 14.949 9.3996 15.912C10.2276 16.695 9.7956 17.68 9.0136 17.938C8.9916 17.949 8.97361 17.98 8.95261 18C8.81461 18 8.6746 18 8.5386 18C8.2576 17.787 7.9476 17.604 7.6996 17.357C6.9106 16.589 6.1456 15.795 5.3516 14.996C5.2546 15.088 5.1666 15.166 5.0846 15.25C4.4146 15.929 3.7526 16.615 3.0696 17.28C2.7976 17.545 2.4776 17.76 2.1786 18C2.0436 18 1.9036 18 1.7646 18ZM9.82061 4.57601C9.8266 2.06701 7.8146 0.00600578 5.3516 5.78461e-06C2.8686 -0.00399422 0.822604 2.06701 0.841604 4.56601C0.860604 7.06201 2.8696 9.09301 5.3286 9.09301C7.7896 9.09501 9.81361 7.05901 9.82061 4.57601ZM7.5616 4.57601C7.5496 5.81601 6.5386 6.81801 5.3106 6.80501C4.0786 6.79201 3.1046 5.78601 3.1106 4.53501C3.1116 3.28201 4.0966 2.29401 5.3376 2.29801C6.5826 2.30101 7.5726 3.31501 7.5616 4.57601Z" transform="translate(15.2168 11.8367)"/>
    </g>
    <g transform="translate(164)" class="gp">
      <path d="M4.5 3V0H3V3H0V4.5H3V7.5H4.5V4.5H7.5V3H4.5Z" transform="translate(24.8047 16.3367)"/>
      <path d="M7.5 6V9H11.7435C11.124 10.746 9.456 12 7.5 12C5.019 12 3 9.981 3 7.5C3 5.019 5.019 3 7.5 3C8.5755 3 9.6105 3.3855 10.4145 4.086L12.3855 1.824C11.0355 0.648 9.3015 0 7.5 0C3.3645 0 0 3.3645 0 7.5C0 11.6355 3.3645 15 7.5 15C11.6355 15 15 11.6355 15 7.5V6H7.5Z" transform="translate(8.30469 13.3367)"/>
    </g>
  </g>

</svg>