<svg width="1444" height="75" viewBox="0 0 1444 75" fill="none" xmlns="http://www.w3.org/2000/svg">
<g clip-path="url(#clip0)">
<rect width="1444" height="75" fill="#26A9E0"/>
<path d="M1248.6 26.488H1244.73V34H1243.73V25.6H1249.6V34H1248.6V26.488ZM1251.21 31C1251.21 29.984 1251.43 29.208 1251.88 28.672C1252.34 28.128 1252.99 27.856 1253.84 27.856C1254.29 27.856 1254.67 27.932 1255 28.084C1255.34 28.228 1255.61 28.44 1255.83 28.72C1256.05 28.992 1256.21 29.324 1256.31 29.716C1256.41 30.1 1256.47 30.528 1256.47 31C1256.47 32.016 1256.24 32.796 1255.78 33.34C1255.33 33.876 1254.69 34.144 1253.84 34.144C1253.39 34.144 1253 34.072 1252.66 33.928C1252.33 33.776 1252.06 33.564 1251.85 33.292C1251.63 33.012 1251.47 32.68 1251.37 32.296C1251.26 31.904 1251.21 31.472 1251.21 31ZM1252.21 31C1252.21 31.304 1252.23 31.596 1252.29 31.876C1252.35 32.156 1252.45 32.4 1252.58 32.608C1252.71 32.816 1252.87 32.984 1253.08 33.112C1253.29 33.24 1253.54 33.304 1253.84 33.304C1254.93 33.312 1255.47 32.544 1255.47 31C1255.47 30.688 1255.44 30.392 1255.37 30.112C1255.32 29.832 1255.23 29.588 1255.1 29.38C1254.97 29.172 1254.8 29.008 1254.59 28.888C1254.39 28.76 1254.13 28.696 1253.84 28.696C1252.75 28.688 1252.21 29.456 1252.21 31ZM1263.21 35.524H1262.56L1262.38 34H1257.87L1257.69 35.524H1257.04V33.16H1257.75C1257.82 33.072 1257.9 32.916 1258 32.692C1258.11 32.46 1258.21 32.14 1258.3 31.732C1258.41 31.316 1258.5 30.804 1258.57 30.196C1258.65 29.58 1258.7 28.848 1258.71 28H1262.34V33.16H1263.21V35.524ZM1261.38 33.16V28.84H1259.58C1259.56 29.176 1259.53 29.544 1259.49 29.944C1259.45 30.336 1259.4 30.732 1259.32 31.132C1259.26 31.524 1259.18 31.896 1259.07 32.248C1258.97 32.6 1258.85 32.904 1258.71 33.16H1261.38ZM1264.4 28H1265.06L1265.24 28.72H1265.29C1265.47 28.44 1265.71 28.228 1266 28.084C1266.29 27.932 1266.63 27.856 1267 27.856C1267.8 27.856 1268.4 28.092 1268.79 28.564C1269.18 29.036 1269.38 29.808 1269.38 30.88C1269.38 31.384 1269.31 31.84 1269.18 32.248C1269.05 32.648 1268.86 32.988 1268.62 33.268C1268.38 33.548 1268.09 33.764 1267.75 33.916C1267.41 34.068 1267.04 34.144 1266.62 34.144C1266.32 34.144 1266.09 34.124 1265.91 34.084C1265.74 34.052 1265.56 33.992 1265.36 33.904V36.4H1264.4V28ZM1266.82 28.696C1266.42 28.696 1266.09 28.804 1265.85 29.02C1265.62 29.228 1265.46 29.548 1265.36 29.98V32.956C1265.5 33.068 1265.67 33.156 1265.85 33.22C1266.04 33.276 1266.28 33.304 1266.58 33.304C1267.14 33.304 1267.57 33.1 1267.89 32.692C1268.22 32.276 1268.38 31.668 1268.38 30.868C1268.38 30.54 1268.36 30.244 1268.3 29.98C1268.24 29.708 1268.15 29.48 1268.02 29.296C1267.9 29.104 1267.74 28.956 1267.54 28.852C1267.35 28.748 1267.11 28.696 1266.82 28.696ZM1270.56 31C1270.56 29.984 1270.78 29.208 1271.23 28.672C1271.68 28.128 1272.34 27.856 1273.18 27.856C1273.63 27.856 1274.02 27.932 1274.35 28.084C1274.68 28.228 1274.96 28.44 1275.18 28.72C1275.39 28.992 1275.55 29.324 1275.66 29.716C1275.76 30.1 1275.81 30.528 1275.81 31C1275.81 32.016 1275.58 32.796 1275.13 33.34C1274.68 33.876 1274.03 34.144 1273.18 34.144C1272.74 34.144 1272.34 34.072 1272.01 33.928C1271.68 33.776 1271.41 33.564 1271.19 33.292C1270.98 33.012 1270.82 32.68 1270.71 32.296C1270.61 31.904 1270.56 31.472 1270.56 31ZM1271.55 31C1271.55 31.304 1271.58 31.596 1271.64 31.876C1271.7 32.156 1271.8 32.4 1271.92 32.608C1272.05 32.816 1272.22 32.984 1272.43 33.112C1272.64 33.24 1272.89 33.304 1273.18 33.304C1274.27 33.312 1274.82 32.544 1274.82 31C1274.82 30.688 1274.78 30.392 1274.72 30.112C1274.66 29.832 1274.57 29.588 1274.44 29.38C1274.32 29.172 1274.15 29.008 1273.94 28.888C1273.73 28.76 1273.48 28.696 1273.18 28.696C1272.1 28.688 1271.55 29.456 1271.55 31ZM1277.88 29.068C1278.14 28.684 1278.43 28.416 1278.75 28.264C1279.07 28.104 1279.47 28.024 1279.95 28.024C1280.69 28.024 1281.25 28.264 1281.65 28.744C1282.05 29.224 1282.25 29.932 1282.25 30.868C1282.25 31.948 1282.01 32.764 1281.55 33.316C1281.09 33.868 1280.45 34.144 1279.63 34.144C1278.75 34.144 1278.09 33.84 1277.65 33.232C1277.21 32.624 1276.99 31.668 1276.99 30.364C1276.99 29.676 1277.02 29.088 1277.09 28.6C1277.16 28.112 1277.26 27.7 1277.39 27.364C1277.52 27.028 1277.68 26.76 1277.87 26.56C1278.06 26.36 1278.27 26.204 1278.5 26.092C1278.74 25.972 1279 25.888 1279.28 25.84C1279.56 25.792 1279.86 25.752 1280.18 25.72C1280.6 25.68 1280.92 25.636 1281.15 25.588C1281.39 25.532 1281.59 25.436 1281.73 25.3L1281.84 26.164C1281.76 26.236 1281.67 26.296 1281.57 26.344C1281.48 26.392 1281.36 26.432 1281.23 26.464C1281.09 26.496 1280.93 26.524 1280.73 26.548C1280.55 26.572 1280.33 26.592 1280.09 26.608C1279.74 26.632 1279.44 26.676 1279.17 26.74C1278.92 26.796 1278.69 26.912 1278.5 27.088C1278.32 27.256 1278.17 27.5 1278.06 27.82C1277.95 28.132 1277.88 28.548 1277.84 29.068H1277.88ZM1277.99 31.012C1277.99 31.316 1278.02 31.608 1278.08 31.888C1278.15 32.168 1278.24 32.416 1278.37 32.632C1278.51 32.84 1278.68 33.004 1278.89 33.124C1279.09 33.244 1279.34 33.304 1279.62 33.304C1280.17 33.304 1280.58 33.108 1280.84 32.716C1281.11 32.316 1281.25 31.728 1281.25 30.952C1281.25 30.648 1281.22 30.368 1281.17 30.112C1281.11 29.856 1281.02 29.636 1280.9 29.452C1280.78 29.26 1280.63 29.116 1280.45 29.02C1280.26 28.916 1280.04 28.864 1279.79 28.864C1279.16 28.856 1278.71 29.04 1278.42 29.416C1278.13 29.784 1277.99 30.316 1277.99 31.012ZM1287.43 31.348H1284.72V34H1283.76V28H1284.72V30.508H1287.43V28H1288.39V34H1287.43V31.348ZM1294.62 33.52C1294.38 33.712 1294.08 33.864 1293.71 33.976C1293.35 34.088 1292.96 34.144 1292.56 34.144C1292.1 34.144 1291.7 34.072 1291.37 33.928C1291.03 33.776 1290.76 33.564 1290.54 33.292C1290.32 33.012 1290.16 32.68 1290.06 32.296C1289.96 31.912 1289.9 31.48 1289.9 31C1289.9 29.976 1290.13 29.196 1290.59 28.66C1291.04 28.124 1291.7 27.856 1292.54 27.856C1292.82 27.856 1293.09 27.888 1293.36 27.952C1293.63 28.008 1293.88 28.12 1294.09 28.288C1294.31 28.456 1294.48 28.696 1294.62 29.008C1294.76 29.312 1294.82 29.716 1294.82 30.22C1294.82 30.484 1294.8 30.776 1294.75 31.096H1290.9C1290.9 31.448 1290.94 31.76 1291.01 32.032C1291.08 32.304 1291.19 32.536 1291.34 32.728C1291.5 32.912 1291.69 33.056 1291.93 33.16C1292.18 33.256 1292.48 33.304 1292.83 33.304C1293.1 33.304 1293.38 33.256 1293.65 33.16C1293.92 33.064 1294.12 32.952 1294.26 32.824L1294.62 33.52ZM1292.56 28.696C1292.08 28.696 1291.7 28.82 1291.42 29.068C1291.14 29.316 1290.97 29.74 1290.91 30.34H1293.89C1293.89 29.732 1293.77 29.308 1293.54 29.068C1293.31 28.82 1292.98 28.696 1292.56 28.696ZM1300.59 33.52C1300.35 33.712 1300.04 33.864 1299.67 33.976C1299.31 34.088 1298.93 34.144 1298.52 34.144C1298.07 34.144 1297.67 34.072 1297.33 33.928C1297 33.776 1296.72 33.564 1296.51 33.292C1296.29 33.012 1296.13 32.68 1296.03 32.296C1295.92 31.912 1295.87 31.48 1295.87 31C1295.87 29.976 1296.1 29.196 1296.55 28.66C1297.01 28.124 1297.66 27.856 1298.51 27.856C1298.78 27.856 1299.05 27.888 1299.33 27.952C1299.6 28.008 1299.84 28.12 1300.06 28.288C1300.27 28.456 1300.45 28.696 1300.59 29.008C1300.72 29.312 1300.79 29.716 1300.79 30.22C1300.79 30.484 1300.77 30.776 1300.72 31.096H1296.87C1296.87 31.448 1296.9 31.76 1296.97 32.032C1297.05 32.304 1297.16 32.536 1297.31 32.728C1297.46 32.912 1297.66 33.056 1297.9 33.16C1298.15 33.256 1298.45 33.304 1298.8 33.304C1299.07 33.304 1299.34 33.256 1299.61 33.16C1299.89 33.064 1300.09 32.952 1300.23 32.824L1300.59 33.52ZM1298.52 28.696C1298.05 28.696 1297.67 28.82 1297.38 29.068C1297.1 29.316 1296.93 29.74 1296.88 30.34H1299.85C1299.85 29.732 1299.74 29.308 1299.51 29.068C1299.27 28.82 1298.95 28.696 1298.52 28.696ZM1305.16 31C1305.16 29.984 1305.39 29.208 1305.83 28.672C1306.29 28.128 1306.94 27.856 1307.79 27.856C1308.24 27.856 1308.63 27.932 1308.95 28.084C1309.29 28.228 1309.57 28.44 1309.78 28.72C1310 28.992 1310.16 29.324 1310.26 29.716C1310.37 30.1 1310.42 30.528 1310.42 31C1310.42 32.016 1310.19 32.796 1309.73 33.34C1309.29 33.876 1308.64 34.144 1307.79 34.144C1307.34 34.144 1306.95 34.072 1306.61 33.928C1306.29 33.776 1306.01 33.564 1305.8 33.292C1305.58 33.012 1305.42 32.68 1305.32 32.296C1305.21 31.904 1305.16 31.472 1305.16 31ZM1306.16 31C1306.16 31.304 1306.19 31.596 1306.24 31.876C1306.31 32.156 1306.4 32.4 1306.53 32.608C1306.66 32.816 1306.83 32.984 1307.03 33.112C1307.24 33.24 1307.49 33.304 1307.79 33.304C1308.88 33.312 1309.42 32.544 1309.42 31C1309.42 30.688 1309.39 30.392 1309.33 30.112C1309.27 29.832 1309.18 29.588 1309.05 29.38C1308.92 29.172 1308.75 29.008 1308.55 28.888C1308.34 28.76 1308.09 28.696 1307.79 28.696C1306.7 28.688 1306.16 29.456 1306.16 31ZM1312.48 29.068C1312.75 28.684 1313.04 28.416 1313.36 28.264C1313.68 28.104 1314.08 28.024 1314.56 28.024C1315.3 28.024 1315.86 28.264 1316.25 28.744C1316.65 29.224 1316.85 29.932 1316.85 30.868C1316.85 31.948 1316.62 32.764 1316.16 33.316C1315.7 33.868 1315.06 34.144 1314.24 34.144C1313.36 34.144 1312.7 33.84 1312.26 33.232C1311.82 32.624 1311.6 31.668 1311.6 30.364C1311.6 29.676 1311.63 29.088 1311.69 28.6C1311.76 28.112 1311.86 27.7 1311.99 27.364C1312.13 27.028 1312.29 26.76 1312.47 26.56C1312.66 26.36 1312.88 26.204 1313.11 26.092C1313.35 25.972 1313.61 25.888 1313.89 25.84C1314.17 25.792 1314.47 25.752 1314.79 25.72C1315.2 25.68 1315.53 25.636 1315.76 25.588C1316 25.532 1316.19 25.436 1316.34 25.3L1316.44 26.164C1316.36 26.236 1316.28 26.296 1316.18 26.344C1316.08 26.392 1315.97 26.432 1315.83 26.464C1315.7 26.496 1315.53 26.524 1315.34 26.548C1315.16 26.572 1314.94 26.592 1314.69 26.608C1314.35 26.632 1314.04 26.676 1313.78 26.74C1313.52 26.796 1313.3 26.912 1313.11 27.088C1312.92 27.256 1312.78 27.5 1312.66 27.82C1312.56 28.132 1312.49 28.548 1312.45 29.068H1312.48ZM1312.59 31.012C1312.59 31.316 1312.62 31.608 1312.69 31.888C1312.75 32.168 1312.85 32.416 1312.98 32.632C1313.11 32.84 1313.28 33.004 1313.49 33.124C1313.7 33.244 1313.94 33.304 1314.22 33.304C1314.78 33.304 1315.18 33.108 1315.45 32.716C1315.72 32.316 1315.86 31.728 1315.86 30.952C1315.86 30.648 1315.83 30.368 1315.77 30.112C1315.72 29.856 1315.63 29.636 1315.51 29.452C1315.39 29.26 1315.24 29.116 1315.05 29.02C1314.87 28.916 1314.65 28.864 1314.39 28.864C1313.77 28.856 1313.31 29.04 1313.02 29.416C1312.74 29.784 1312.59 30.316 1312.59 31.012ZM1321.47 28.444C1321.77 28.26 1322.12 28.124 1322.52 28.036C1322.93 27.948 1323.36 27.904 1323.8 27.904C1324.21 27.904 1324.54 27.96 1324.79 28.072C1325.05 28.184 1325.24 28.332 1325.37 28.516C1325.5 28.692 1325.59 28.888 1325.63 29.104C1325.68 29.32 1325.7 29.536 1325.7 29.752C1325.7 30.232 1325.69 30.7 1325.67 31.156C1325.64 31.612 1325.63 32.044 1325.63 32.452C1325.63 32.748 1325.64 33.028 1325.67 33.292C1325.69 33.556 1325.74 33.8 1325.8 34.024H1325.09L1324.84 33.184H1324.78C1324.71 33.296 1324.62 33.408 1324.5 33.52C1324.4 33.624 1324.27 33.72 1324.12 33.808C1323.97 33.888 1323.79 33.956 1323.59 34.012C1323.39 34.068 1323.16 34.096 1322.91 34.096C1322.65 34.096 1322.41 34.056 1322.19 33.976C1321.97 33.896 1321.78 33.784 1321.62 33.64C1321.46 33.488 1321.34 33.308 1321.24 33.1C1321.15 32.892 1321.11 32.656 1321.11 32.392C1321.11 32.04 1321.18 31.748 1321.32 31.516C1321.47 31.276 1321.67 31.088 1321.92 30.952C1322.19 30.808 1322.5 30.708 1322.86 30.652C1323.23 30.588 1323.63 30.556 1324.07 30.556C1324.18 30.556 1324.29 30.556 1324.4 30.556C1324.51 30.556 1324.62 30.564 1324.73 30.58C1324.76 30.34 1324.77 30.124 1324.77 29.932C1324.77 29.492 1324.68 29.184 1324.5 29.008C1324.33 28.832 1324.01 28.744 1323.54 28.744C1323.41 28.744 1323.26 28.756 1323.1 28.78C1322.95 28.796 1322.79 28.824 1322.62 28.864C1322.46 28.896 1322.3 28.94 1322.15 28.996C1322.01 29.044 1321.88 29.1 1321.77 29.164L1321.47 28.444ZM1323.17 33.256C1323.4 33.256 1323.6 33.228 1323.77 33.172C1323.95 33.108 1324.1 33.032 1324.23 32.944C1324.36 32.848 1324.46 32.744 1324.54 32.632C1324.63 32.52 1324.69 32.412 1324.73 32.308V31.312C1324.62 31.304 1324.5 31.3 1324.38 31.3C1324.27 31.292 1324.16 31.288 1324.05 31.288C1323.8 31.288 1323.56 31.304 1323.32 31.336C1323.08 31.36 1322.88 31.412 1322.69 31.492C1322.52 31.564 1322.37 31.668 1322.26 31.804C1322.16 31.932 1322.1 32.096 1322.1 32.296C1322.1 32.576 1322.2 32.808 1322.4 32.992C1322.6 33.168 1322.86 33.256 1323.17 33.256ZM1329.03 31.3H1328.48V34H1327.52V28H1328.48V30.712L1328.99 30.544L1330.91 28H1331.96L1330.1 30.412L1329.59 30.808L1330.22 31.288L1332.22 34H1331.03L1329.03 31.3ZM1338.64 35.524H1337.99L1337.81 34H1333.25V28H1334.21V33.16H1336.81V28H1337.77V33.16H1338.64V35.524ZM1343.57 30.448L1343.6 29.704H1343.57L1343.07 30.472L1340.37 34H1339.82V28H1340.78V31.66L1340.75 32.368H1340.79L1341.26 31.624L1343.96 28H1344.53V34H1343.57V30.448ZM1350.12 30.448L1350.15 29.704H1350.12L1349.63 30.472L1346.93 34H1346.37V28H1347.33V31.66L1347.3 32.368H1347.35L1347.81 31.624L1350.51 28H1351.08V34H1350.12V30.448ZM1243.66 46.448L1243.7 45.704H1243.66L1243.17 46.472L1240.47 50H1239.92V44H1240.88V47.66L1240.84 48.368H1240.89L1241.36 47.624L1244.06 44H1244.62V50H1243.66V46.448ZM1253.22 44.84H1251.33V50H1250.37V44.84H1248.49V44H1253.22V44.84ZM1253.65 47C1253.65 45.984 1253.87 45.208 1254.32 44.672C1254.77 44.128 1255.43 43.856 1256.27 43.856C1256.72 43.856 1257.11 43.932 1257.44 44.084C1257.77 44.228 1258.05 44.44 1258.27 44.72C1258.48 44.992 1258.64 45.324 1258.75 45.716C1258.85 46.1 1258.9 46.528 1258.9 47C1258.9 48.016 1258.67 48.796 1258.22 49.34C1257.77 49.876 1257.12 50.144 1256.27 50.144C1255.83 50.144 1255.43 50.072 1255.1 49.928C1254.77 49.776 1254.5 49.564 1254.28 49.292C1254.07 49.012 1253.91 48.68 1253.8 48.296C1253.7 47.904 1253.65 47.472 1253.65 47ZM1254.64 47C1254.64 47.304 1254.67 47.596 1254.73 47.876C1254.79 48.156 1254.89 48.4 1255.01 48.608C1255.14 48.816 1255.31 48.984 1255.52 49.112C1255.73 49.24 1255.98 49.304 1256.27 49.304C1257.36 49.312 1257.91 48.544 1257.91 47C1257.91 46.688 1257.87 46.392 1257.81 46.112C1257.75 45.832 1257.66 45.588 1257.53 45.38C1257.41 45.172 1257.24 45.008 1257.03 44.888C1256.82 44.76 1256.57 44.696 1256.27 44.696C1255.19 44.688 1254.64 45.456 1254.64 47ZM1260.42 44.012C1260.7 43.996 1260.99 43.976 1261.29 43.952C1261.6 43.928 1261.99 43.916 1262.44 43.916C1263.24 43.916 1263.8 44.04 1264.15 44.288C1264.49 44.528 1264.66 44.896 1264.66 45.392C1264.66 45.672 1264.58 45.948 1264.41 46.22C1264.25 46.484 1263.98 46.68 1263.61 46.808V46.856C1264.08 46.944 1264.41 47.108 1264.6 47.348C1264.8 47.588 1264.89 47.908 1264.89 48.308C1264.89 48.932 1264.67 49.384 1264.22 49.664C1263.77 49.944 1263.1 50.084 1262.2 50.084C1261.87 50.084 1261.56 50.072 1261.27 50.048C1260.98 50.032 1260.7 50.012 1260.42 49.988V44.012ZM1261.38 49.196C1261.53 49.212 1261.68 49.224 1261.82 49.232C1261.97 49.24 1262.15 49.244 1262.35 49.244C1262.88 49.244 1263.28 49.168 1263.54 49.016C1263.8 48.864 1263.93 48.604 1263.93 48.236C1263.93 47.948 1263.82 47.716 1263.6 47.54C1263.38 47.356 1262.99 47.264 1262.43 47.264H1261.38V49.196ZM1262.55 46.532C1262.7 46.532 1262.84 46.508 1262.97 46.46C1263.11 46.412 1263.23 46.348 1263.33 46.268C1263.44 46.18 1263.53 46.08 1263.6 45.968C1263.67 45.856 1263.7 45.736 1263.7 45.608C1263.7 45.288 1263.61 45.068 1263.42 44.948C1263.22 44.82 1262.89 44.756 1262.41 44.756C1262.15 44.756 1261.95 44.76 1261.8 44.768C1261.65 44.776 1261.51 44.784 1261.38 44.792V46.532H1262.55ZM1266.31 44.444C1266.61 44.26 1266.96 44.124 1267.36 44.036C1267.77 43.948 1268.2 43.904 1268.64 43.904C1269.05 43.904 1269.38 43.96 1269.63 44.072C1269.89 44.184 1270.08 44.332 1270.21 44.516C1270.34 44.692 1270.43 44.888 1270.47 45.104C1270.52 45.32 1270.54 45.536 1270.54 45.752C1270.54 46.232 1270.53 46.7 1270.51 47.156C1270.48 47.612 1270.47 48.044 1270.47 48.452C1270.47 48.748 1270.48 49.028 1270.51 49.292C1270.53 49.556 1270.58 49.8 1270.64 50.024H1269.93L1269.68 49.184H1269.62C1269.55 49.296 1269.46 49.408 1269.34 49.52C1269.24 49.624 1269.11 49.72 1268.96 49.808C1268.81 49.888 1268.63 49.956 1268.43 50.012C1268.23 50.068 1268 50.096 1267.75 50.096C1267.49 50.096 1267.25 50.056 1267.03 49.976C1266.81 49.896 1266.62 49.784 1266.46 49.64C1266.3 49.488 1266.18 49.308 1266.08 49.1C1265.99 48.892 1265.95 48.656 1265.95 48.392C1265.95 48.04 1266.02 47.748 1266.16 47.516C1266.31 47.276 1266.51 47.088 1266.76 46.952C1267.03 46.808 1267.34 46.708 1267.7 46.652C1268.07 46.588 1268.47 46.556 1268.91 46.556C1269.02 46.556 1269.13 46.556 1269.24 46.556C1269.35 46.556 1269.46 46.564 1269.57 46.58C1269.6 46.34 1269.61 46.124 1269.61 45.932C1269.61 45.492 1269.52 45.184 1269.34 45.008C1269.17 44.832 1268.85 44.744 1268.38 44.744C1268.25 44.744 1268.1 44.756 1267.94 44.78C1267.79 44.796 1267.63 44.824 1267.46 44.864C1267.3 44.896 1267.14 44.94 1266.99 44.996C1266.85 45.044 1266.72 45.1 1266.61 45.164L1266.31 44.444ZM1268.01 49.256C1268.24 49.256 1268.44 49.228 1268.61 49.172C1268.79 49.108 1268.94 49.032 1269.07 48.944C1269.2 48.848 1269.3 48.744 1269.38 48.632C1269.47 48.52 1269.53 48.412 1269.57 48.308V47.312C1269.46 47.304 1269.34 47.3 1269.22 47.3C1269.11 47.292 1269 47.288 1268.89 47.288C1268.64 47.288 1268.4 47.304 1268.16 47.336C1267.92 47.36 1267.72 47.412 1267.53 47.492C1267.36 47.564 1267.21 47.668 1267.1 47.804C1267 47.932 1266.94 48.096 1266.94 48.296C1266.94 48.576 1267.04 48.808 1267.24 48.992C1267.44 49.168 1267.7 49.256 1268.01 49.256ZM1272.36 44H1273.02L1273.2 44.72H1273.25C1273.43 44.44 1273.67 44.228 1273.95 44.084C1274.25 43.932 1274.59 43.856 1274.96 43.856C1275.76 43.856 1276.36 44.092 1276.75 44.564C1277.14 45.036 1277.34 45.808 1277.34 46.88C1277.34 47.384 1277.27 47.84 1277.13 48.248C1277.01 48.648 1276.82 48.988 1276.58 49.268C1276.34 49.548 1276.05 49.764 1275.71 49.916C1275.37 50.068 1274.99 50.144 1274.58 50.144C1274.28 50.144 1274.05 50.124 1273.87 50.084C1273.7 50.052 1273.52 49.992 1273.32 49.904V52.4H1272.36V44ZM1274.78 44.696C1274.37 44.696 1274.05 44.804 1273.81 45.02C1273.58 45.228 1273.41 45.548 1273.32 45.98V48.956C1273.46 49.068 1273.63 49.156 1273.81 49.22C1273.99 49.276 1274.24 49.304 1274.54 49.304C1275.09 49.304 1275.53 49.1 1275.85 48.692C1276.18 48.276 1276.34 47.668 1276.34 46.868C1276.34 46.54 1276.31 46.244 1276.26 45.98C1276.2 45.708 1276.11 45.48 1275.98 45.296C1275.86 45.104 1275.7 44.956 1275.5 44.852C1275.31 44.748 1275.07 44.696 1274.78 44.696ZM1278.75 44.444C1279.06 44.26 1279.41 44.124 1279.81 44.036C1280.22 43.948 1280.64 43.904 1281.08 43.904C1281.5 43.904 1281.83 43.96 1282.08 44.072C1282.33 44.184 1282.53 44.332 1282.65 44.516C1282.79 44.692 1282.88 44.888 1282.92 45.104C1282.97 45.32 1282.99 45.536 1282.99 45.752C1282.99 46.232 1282.98 46.7 1282.95 47.156C1282.93 47.612 1282.92 48.044 1282.92 48.452C1282.92 48.748 1282.93 49.028 1282.95 49.292C1282.98 49.556 1283.02 49.8 1283.09 50.024H1282.38L1282.13 49.184H1282.07C1281.99 49.296 1281.9 49.408 1281.79 49.52C1281.69 49.624 1281.56 49.72 1281.41 49.808C1281.25 49.888 1281.08 49.956 1280.88 50.012C1280.68 50.068 1280.45 50.096 1280.19 50.096C1279.94 50.096 1279.7 50.056 1279.47 49.976C1279.26 49.896 1279.07 49.784 1278.91 49.64C1278.75 49.488 1278.62 49.308 1278.53 49.1C1278.44 48.892 1278.39 48.656 1278.39 48.392C1278.39 48.04 1278.47 47.748 1278.61 47.516C1278.75 47.276 1278.95 47.088 1279.21 46.952C1279.47 46.808 1279.79 46.708 1280.15 46.652C1280.51 46.588 1280.92 46.556 1281.36 46.556C1281.47 46.556 1281.58 46.556 1281.68 46.556C1281.79 46.556 1281.91 46.564 1282.02 46.58C1282.04 46.34 1282.05 46.124 1282.05 45.932C1282.05 45.492 1281.97 45.184 1281.79 45.008C1281.61 44.832 1281.29 44.744 1280.83 44.744C1280.69 44.744 1280.55 44.756 1280.39 44.78C1280.23 44.796 1280.07 44.824 1279.91 44.864C1279.75 44.896 1279.59 44.94 1279.44 44.996C1279.29 45.044 1279.17 45.1 1279.05 45.164L1278.75 44.444ZM1280.46 49.256C1280.68 49.256 1280.88 49.228 1281.06 49.172C1281.23 49.108 1281.39 49.032 1281.51 48.944C1281.64 48.848 1281.75 48.744 1281.83 48.632C1281.91 48.52 1281.98 48.412 1282.02 48.308V47.312C1281.91 47.304 1281.79 47.3 1281.67 47.3C1281.56 47.292 1281.45 47.288 1281.33 47.288C1281.09 47.288 1280.84 47.304 1280.6 47.336C1280.37 47.36 1280.16 47.412 1279.98 47.492C1279.8 47.564 1279.66 47.668 1279.55 47.804C1279.44 47.932 1279.39 48.096 1279.39 48.296C1279.39 48.576 1279.49 48.808 1279.69 48.992C1279.89 49.168 1280.15 49.256 1280.46 49.256ZM1286.37 46.928L1284.36 44H1285.53L1286.67 45.656L1287.01 46.34L1287.36 45.656L1288.52 44H1289.6L1287.57 46.88L1289.72 50H1288.58L1287.31 48.176L1286.95 47.456L1286.58 48.176L1285.28 50H1284.21L1286.37 46.928ZM1290.25 46.1H1293.15V46.988H1290.25V46.1ZM1296.36 47.888L1296.7 49.04H1296.76L1297.02 47.876L1298.19 44H1299.16L1297.38 49.388C1297.25 49.78 1297.11 50.16 1296.98 50.528C1296.85 50.896 1296.7 51.224 1296.54 51.512C1296.38 51.8 1296.2 52.028 1296 52.196C1295.8 52.372 1295.57 52.46 1295.31 52.46C1295.02 52.46 1294.78 52.42 1294.6 52.34L1294.77 51.512C1294.87 51.552 1294.97 51.572 1295.07 51.572C1295.29 51.572 1295.51 51.452 1295.72 51.212C1295.92 50.98 1296.1 50.576 1296.23 50L1293.82 44H1294.92L1296.36 47.888ZM1300.81 44V45.632C1300.81 45.848 1300.83 46.044 1300.85 46.22C1300.87 46.388 1300.92 46.536 1300.99 46.664C1301.07 46.784 1301.17 46.88 1301.31 46.952C1301.44 47.016 1301.62 47.048 1301.85 47.048C1302.21 47.048 1302.5 47.008 1302.73 46.928C1302.97 46.848 1303.14 46.76 1303.26 46.664V44H1304.22V50H1303.26V47.48C1303.13 47.56 1302.94 47.648 1302.69 47.744C1302.44 47.84 1302.09 47.888 1301.65 47.888C1301.36 47.888 1301.1 47.856 1300.87 47.792C1300.65 47.728 1300.46 47.616 1300.31 47.456C1300.16 47.296 1300.04 47.084 1299.96 46.82C1299.89 46.556 1299.85 46.224 1299.85 45.824V44H1300.81ZM1305.98 44.444C1306.28 44.26 1306.63 44.124 1307.03 44.036C1307.44 43.948 1307.86 43.904 1308.3 43.904C1308.72 43.904 1309.05 43.96 1309.3 44.072C1309.56 44.184 1309.75 44.332 1309.88 44.516C1310.01 44.692 1310.1 44.888 1310.14 45.104C1310.19 45.32 1310.21 45.536 1310.21 45.752C1310.21 46.232 1310.2 46.7 1310.18 47.156C1310.15 47.612 1310.14 48.044 1310.14 48.452C1310.14 48.748 1310.15 49.028 1310.18 49.292C1310.2 49.556 1310.24 49.8 1310.31 50.024H1309.6L1309.35 49.184H1309.29C1309.22 49.296 1309.12 49.408 1309.01 49.52C1308.91 49.624 1308.78 49.72 1308.63 49.808C1308.48 49.888 1308.3 49.956 1308.1 50.012C1307.9 50.068 1307.67 50.096 1307.42 50.096C1307.16 50.096 1306.92 50.056 1306.7 49.976C1306.48 49.896 1306.29 49.784 1306.13 49.64C1305.97 49.488 1305.84 49.308 1305.75 49.1C1305.66 48.892 1305.62 48.656 1305.62 48.392C1305.62 48.04 1305.69 47.748 1305.83 47.516C1305.98 47.276 1306.18 47.088 1306.43 46.952C1306.7 46.808 1307.01 46.708 1307.37 46.652C1307.74 46.588 1308.14 46.556 1308.58 46.556C1308.69 46.556 1308.8 46.556 1308.9 46.556C1309.02 46.556 1309.13 46.564 1309.24 46.58C1309.26 46.34 1309.28 46.124 1309.28 45.932C1309.28 45.492 1309.19 45.184 1309.01 45.008C1308.84 44.832 1308.52 44.744 1308.05 44.744C1307.92 44.744 1307.77 44.756 1307.61 44.78C1307.46 44.796 1307.3 44.824 1307.13 44.864C1306.97 44.896 1306.81 44.94 1306.66 44.996C1306.52 45.044 1306.39 45.1 1306.28 45.164L1305.98 44.444ZM1307.68 49.256C1307.9 49.256 1308.1 49.228 1308.28 49.172C1308.46 49.108 1308.61 49.032 1308.74 48.944C1308.86 48.848 1308.97 48.744 1309.05 48.632C1309.14 48.52 1309.2 48.412 1309.24 48.308V47.312C1309.13 47.304 1309.01 47.3 1308.89 47.3C1308.78 47.292 1308.67 47.288 1308.56 47.288C1308.31 47.288 1308.06 47.304 1307.82 47.336C1307.59 47.36 1307.38 47.412 1307.2 47.492C1307.02 47.564 1306.88 47.668 1306.77 47.804C1306.66 47.932 1306.61 48.096 1306.61 48.296C1306.61 48.576 1306.71 48.808 1306.91 48.992C1307.11 49.168 1307.37 49.256 1307.68 49.256ZM1316.12 49.604C1315.88 49.78 1315.59 49.912 1315.27 50C1314.94 50.096 1314.59 50.144 1314.23 50.144C1313.77 50.144 1313.38 50.072 1313.06 49.928C1312.74 49.776 1312.47 49.564 1312.27 49.292C1312.07 49.012 1311.92 48.68 1311.82 48.296C1311.73 47.904 1311.69 47.472 1311.69 47C1311.69 45.984 1311.91 45.208 1312.36 44.672C1312.81 44.128 1313.45 43.856 1314.29 43.856C1314.68 43.856 1315 43.888 1315.27 43.952C1315.54 44.008 1315.78 44.092 1316 44.204L1315.72 45.032C1315.54 44.928 1315.33 44.848 1315.11 44.792C1314.89 44.728 1314.65 44.696 1314.39 44.696C1313.25 44.696 1312.69 45.464 1312.69 47C1312.69 47.304 1312.71 47.596 1312.77 47.876C1312.83 48.148 1312.93 48.392 1313.07 48.608C1313.21 48.816 1313.4 48.984 1313.62 49.112C1313.85 49.24 1314.14 49.304 1314.47 49.304C1314.76 49.304 1315.02 49.26 1315.24 49.172C1315.47 49.084 1315.66 48.984 1315.81 48.872L1316.12 49.604ZM1321.08 44.84H1319.2V50H1318.24V44.84H1316.35V44H1321.08V44.84ZM1325.71 47.348H1322.99V50H1322.03V44H1322.99V46.508H1325.71V44H1326.67V50H1325.71V47.348ZM1332.26 46.448L1332.29 45.704H1332.26L1331.77 46.472L1329.07 50H1328.51V44H1329.47V47.66L1329.44 48.368H1329.49L1329.95 47.624L1332.65 44H1333.22V50H1332.26V46.448ZM1336.58 47.3H1336.02V50H1335.06V44H1336.02V46.712L1336.54 46.544L1338.46 44H1339.5L1337.64 46.412L1337.14 46.808L1337.76 47.288L1339.77 50H1338.58L1336.58 47.3ZM1340.7 44.444C1341 44.26 1341.36 44.124 1341.76 44.036C1342.16 43.948 1342.59 43.904 1343.03 43.904C1343.44 43.904 1343.78 43.96 1344.02 44.072C1344.28 44.184 1344.47 44.332 1344.6 44.516C1344.74 44.692 1344.82 44.888 1344.86 45.104C1344.91 45.32 1344.94 45.536 1344.94 45.752C1344.94 46.232 1344.92 46.7 1344.9 47.156C1344.88 47.612 1344.86 48.044 1344.86 48.452C1344.86 48.748 1344.88 49.028 1344.9 49.292C1344.92 49.556 1344.97 49.8 1345.03 50.024H1344.32L1344.07 49.184H1344.01C1343.94 49.296 1343.85 49.408 1343.74 49.52C1343.63 49.624 1343.5 49.72 1343.35 49.808C1343.2 49.888 1343.02 49.956 1342.82 50.012C1342.62 50.068 1342.4 50.096 1342.14 50.096C1341.88 50.096 1341.64 50.056 1341.42 49.976C1341.2 49.896 1341.02 49.784 1340.86 49.64C1340.7 49.488 1340.57 49.308 1340.47 49.1C1340.38 48.892 1340.34 48.656 1340.34 48.392C1340.34 48.04 1340.41 47.748 1340.56 47.516C1340.7 47.276 1340.9 47.088 1341.16 46.952C1341.42 46.808 1341.73 46.708 1342.09 46.652C1342.46 46.588 1342.86 46.556 1343.3 46.556C1343.42 46.556 1343.52 46.556 1343.63 46.556C1343.74 46.556 1343.85 46.564 1343.96 46.58C1343.99 46.34 1344 46.124 1344 45.932C1344 45.492 1343.91 45.184 1343.74 45.008C1343.56 44.832 1343.24 44.744 1342.78 44.744C1342.64 44.744 1342.49 44.756 1342.33 44.78C1342.18 44.796 1342.02 44.824 1341.85 44.864C1341.69 44.896 1341.54 44.94 1341.38 44.996C1341.24 45.044 1341.11 45.1 1341 45.164L1340.7 44.444ZM1342.4 49.256C1342.63 49.256 1342.83 49.228 1343 49.172C1343.18 49.108 1343.33 49.032 1343.46 48.944C1343.59 48.848 1343.69 48.744 1343.77 48.632C1343.86 48.52 1343.92 48.412 1343.96 48.308V47.312C1343.85 47.304 1343.74 47.3 1343.62 47.3C1343.5 47.292 1343.39 47.288 1343.28 47.288C1343.03 47.288 1342.79 47.304 1342.55 47.336C1342.32 47.36 1342.11 47.412 1341.92 47.492C1341.75 47.564 1341.6 47.668 1341.49 47.804C1341.39 47.932 1341.34 48.096 1341.34 48.296C1341.34 48.576 1341.44 48.808 1341.64 48.992C1341.84 49.168 1342.09 49.256 1342.4 49.256ZM1348.32 46.928L1346.3 44H1347.48L1348.62 45.656L1348.96 46.34L1349.3 45.656L1350.47 44H1351.55L1349.52 46.88L1351.67 50H1350.53L1349.26 48.176L1348.9 47.456L1348.52 48.176L1347.23 50H1346.16L1348.32 46.928Z" fill="white" fill-opacity="0.5"/>
<path d="M1143.94 49.2299C1143.91 51.0578 1144.41 52.8553 1145.4 54.3951C1146.38 55.935 1147.8 57.148 1149.48 57.8809C1151.15 58.6138 1153.01 58.8335 1154.81 58.5124C1156.61 58.1913 1158.27 57.3438 1159.59 56.0769C1160.91 54.8101 1161.82 53.1808 1162.21 51.3952C1162.61 49.6095 1162.46 47.7476 1161.8 46.0449C1161.13 44.3422 1159.97 42.8752 1158.47 41.8293C1156.97 40.7834 1155.2 40.2055 1153.37 40.1689C1150.92 40.1208 1148.55 41.0483 1146.78 42.7474C1145.01 44.4466 1143.99 46.7783 1143.94 49.2299Z" fill="white" fill-opacity="0.5"/>
<path d="M1131.88 57.3133C1131.87 57.6333 1131.96 57.9475 1132.14 58.2163C1132.31 58.485 1132.56 58.6963 1132.85 58.8235C1133.15 58.9506 1133.47 58.9879 1133.79 58.9307C1134.1 58.8735 1134.39 58.7243 1134.62 58.5019C1134.85 58.2795 1135.01 57.994 1135.08 57.6813C1135.15 57.3686 1135.12 57.0427 1135.01 56.7448C1134.89 56.4469 1134.69 56.1904 1134.42 56.0075C1134.16 55.8247 1133.85 55.7237 1133.53 55.7174C1133.32 55.7131 1133.1 55.7511 1132.91 55.8291C1132.71 55.9072 1132.53 56.0237 1132.37 56.172C1132.22 56.3203 1132.1 56.4975 1132.01 56.6933C1131.93 56.8892 1131.88 57.0999 1131.88 57.3133Z" fill="white"/>
<path d="M1131.85 17.73C1131.85 18.109 1132.56 18.4362 1133.45 18.4521C1134.33 18.4681 1135.07 18.1728 1135.08 17.7938C1135.09 17.4148 1134.37 17.0836 1133.48 17.0676C1132.6 17.0517 1131.86 17.3469 1131.85 17.73Z" fill="white"/>
<path d="M1108.13 75.6748C1099.98 72.1558 1100.39 66.6617 1100.78 64.8463C1099.45 63.4499 1098.86 58.3667 1099.03 49.7327C1099.11 41.6123 1102.04 33.7778 1107.3 27.5888C1113.43 20.4071 1122.37 15.7948 1133.87 13.8357C1158.27 9.68626 1169.75 27.8322 1173.54 35.8279C1174.58 38.0104 1175.26 41.4138 1175.98 45.0525C1177.64 53.3994 1179.5 62.8594 1186.14 62.2529C1195 61.4549 1197.14 52.8408 1197.5 51.0294C1196.41 49.6928 1192.56 44.6256 1193.74 41.5295C1194.19 40.3325 1195.28 39.5984 1196.96 39.355C1198.8 39.0837 1200.3 39.5066 1201.41 40.6078C1203.35 42.519 1203.57 46.0181 1203.51 48.029C1205.91 46.5846 1210.94 43.9314 1213.49 45.3199C1214.2 45.7188 1215.04 46.5807 1215 48.5397C1214.88 54.3529 1208.17 55.9449 1204.23 56.0047C1200.45 65.0019 1192.63 70.4321 1192.26 70.6835C1182.04 76.9676 1157.54 78.2643 1147.5 78.5436C1143.14 78.6593 1138.82 78.6712 1134.71 78.5914C1122.27 78.356 1111.8 77.2628 1108.13 75.6748ZM1203.08 50.0878L1201.71 51.0054L1201.92 49.3696C1201.92 49.3137 1202.61 43.8875 1200.37 41.6851C1199.59 40.923 1198.55 40.6477 1197.18 40.8472C1195.51 41.0906 1195.23 41.8327 1195.14 42.0721C1194.41 44.0072 1197.04 48.1766 1198.86 50.3471L1199.08 50.6064L1199.03 50.9416C1199.03 51.0573 1197.16 62.7636 1186.26 63.7571C1185.96 63.7846 1185.65 63.7966 1185.35 63.793C1178.12 63.6493 1176.12 53.543 1174.49 45.3558C1173.8 41.8287 1173.13 38.4972 1172.18 36.4823C1168.52 28.7978 1157.49 11.346 1134.1 15.3359C1103.46 20.5467 1100.64 43.0097 1100.51 49.7686C1100.29 60.9841 1101.47 63.3341 1101.79 63.7331L1102.78 63.6174L1102.33 64.7785C1102.24 65.0139 1100.19 70.6157 1108.72 74.2983C1117.65 78.1565 1175.35 79.3256 1191.42 69.4347C1191.5 69.3788 1199.48 63.8488 1202.99 54.9833L1203.18 54.5006H1203.7C1203.8 54.5006 1213.35 54.6203 1213.48 48.5157C1213.51 47.0515 1212.93 46.7402 1212.74 46.6365C1212.44 46.4867 1212.11 46.4115 1211.77 46.4171C1209.52 46.3812 1205.45 48.4958 1203.08 50.0878H1203.08Z" fill="white"/>
<path d="M1124.27 68.2337C1132.13 68.3893 1140.4 67.328 1146.3 63.4059C1150.79 60.4215 1153.44 56.0606 1154.16 50.4508L1152.68 50.2593C1152.01 55.4182 1149.59 59.436 1145.47 62.1571C1131.37 71.5253 1101.83 63.5256 1101.53 63.4458L1101.14 64.8902C1101.87 65.0936 1112.62 68.0023 1124.27 68.2337Z" fill="white"/>
<path d="M1154.4 51.1928C1155.24 51.2281 1156.07 51.0084 1156.79 50.5624L1155.92 49.3415L1156.36 49.952L1155.93 49.3335C1155.85 49.3854 1153.97 50.5943 1151.1 48.2483L1150.16 49.4093C1151.82 50.7619 1153.26 51.1689 1154.4 51.1928Z" fill="white"/>
<path d="M1166.33 73.2011C1166.57 73.2011 1166.8 73.2011 1167.04 73.2011C1170.3 73.0415 1172.45 71.3897 1172.97 68.6606C1173.14 67.9438 1173.13 67.1968 1172.95 66.4823C1172.77 65.7678 1172.42 65.1068 1171.94 64.555C1168.97 61.2274 1161.07 61.7621 1160.74 61.7621L1160.84 63.2583C1160.92 63.2583 1168.34 62.7636 1170.82 65.5445C1171.15 65.927 1171.39 66.3845 1171.5 66.8779C1171.62 67.3713 1171.62 67.8858 1171.49 68.3773C1170.99 71.0984 1168.44 71.6251 1166.96 71.6969C1162.85 71.8964 1158.19 69.3828 1157.34 66.51L1155.9 66.909C1156.95 70.5678 1162.1 73.1173 1166.33 73.2011Z" fill="white"/>
<path d="M1132.81 6.22307C1132.81 6.15524 1132.14 -0.53578 1129.08 -3.16112C1126.91 -5.02439 1126.91 -7.39837 1128.01 -8.68311C1128.95 -9.78033 1130.77 -10.1474 1132.72 -8.47963C1136.26 -5.43535 1134.5 5.08596 1134.31 6.28292L1133.31 11.7052L1132.81 6.22307ZM1129.15 -7.70559C1128.51 -6.96347 1128.67 -5.48323 1130.05 -4.29823C1131.68 -2.90178 1132.7 -0.639517 1133.34 1.41926C1133.54 -2.01203 1133.34 -5.96999 1131.74 -7.35847C1131.29 -7.79132 1130.71 -8.0597 1130.08 -8.12054C1129.91 -8.12745 1129.73 -8.09364 1129.57 -8.02169C1129.41 -7.94975 1129.26 -7.84161 1129.15 -7.70559Z" fill="white"/>
<path d="M1135.31 7.10482C1135.47 5.4171 1137.11 -9.45317 1143.12 -10.9613C1144.23 -11.2586 1145.41 -11.1177 1146.42 -10.5678C1147.42 -10.0179 1148.18 -9.10142 1148.53 -8.00884C1149.21 -5.98996 1148.5 -3.34467 1145.37 -1.9921C1140.3 0.19435 1136.74 7.43199 1136.71 7.50779L1134.87 11.2782L1135.31 7.10482ZM1143.47 -9.51701C1140.17 -8.67914 1138.21 -1.57317 1137.3 3.55782C1138.94 1.13197 1141.54 -1.97215 1144.76 -3.36462C1147.15 -4.40598 1147.55 -6.19743 1147.09 -7.53005C1146.9 -8.11832 1146.53 -8.63331 1146.04 -9.00516C1145.55 -9.37702 1144.95 -9.58775 1144.33 -9.60878C1144.04 -9.61465 1143.75 -9.58382 1143.47 -9.51701Z" fill="white"/>
<path d="M1130.76 6.84141C1130.14 6.77757 1124.66 6.1352 1123.73 3.83703C1123.51 3.31037 1123.43 2.48446 1124.24 1.50694C1124.47 1.20144 1124.77 0.959448 1125.12 0.803781C1125.47 0.648114 1125.86 0.583903 1126.24 0.617201C1128.7 0.844624 1131.22 5.2295 1131.49 5.73223L1132.2 6.99303L1130.76 6.84141ZM1125.39 2.45255C1124.99 2.9433 1125.08 3.1787 1125.11 3.25052C1125.42 4.00062 1127.33 4.70683 1129.34 5.09384C1128.33 3.63355 1127.01 2.17325 1126.1 2.08947H1126.04C1125.91 2.09317 1125.79 2.12815 1125.67 2.19139C1125.56 2.25463 1125.46 2.34425 1125.39 2.45255Z" fill="white"/>
<path d="M291.057 49.2299C291.093 51.0578 290.586 52.8553 289.601 54.3951C288.615 55.935 287.195 57.148 285.52 57.8809C283.845 58.6138 281.991 58.8335 280.191 58.5124C278.391 58.1913 276.727 57.3438 275.408 56.0769C274.09 54.8101 273.177 53.1808 272.785 51.3952C272.393 49.6095 272.539 47.7476 273.205 46.0449C273.87 44.3422 275.026 42.8752 276.526 41.8293C278.025 40.7834 279.801 40.2055 281.629 40.1689C284.081 40.1208 286.451 41.0483 288.219 42.7474C289.987 44.4466 291.008 46.7783 291.057 49.2299Z" fill="white" fill-opacity="0.5"/>
<path d="M303.123 57.3133C303.127 57.6333 303.037 57.9475 302.863 58.2163C302.69 58.485 302.44 58.6963 302.146 58.8235C301.853 58.9506 301.528 58.9879 301.213 58.9307C300.898 58.8735 300.607 58.7243 300.377 58.5019C300.147 58.2795 299.988 57.994 299.92 57.6813C299.852 57.3686 299.878 57.0427 299.995 56.7448C300.112 56.4469 300.315 56.1904 300.577 56.0075C300.84 55.8247 301.151 55.7237 301.471 55.7174C301.684 55.7131 301.896 55.7511 302.095 55.8291C302.294 55.9072 302.475 56.0237 302.628 56.172C302.782 56.3203 302.905 56.4975 302.989 56.6933C303.074 56.8892 303.119 57.0999 303.123 57.3133Z" fill="white"/>
<path d="M303.15 17.73C303.15 18.109 302.436 18.4362 301.554 18.4521C300.673 18.4681 299.931 18.1728 299.923 17.7938C299.915 17.4148 300.633 17.0836 301.519 17.0676C302.404 17.0517 303.142 17.3469 303.15 17.73Z" fill="white"/>
<path d="M326.874 75.6748C335.018 72.1558 334.607 66.6617 334.216 64.8463C335.548 63.4499 336.143 58.3667 335.971 49.7327C335.887 41.6123 332.962 33.7778 327.704 27.5888C321.572 20.4071 312.63 15.7948 301.132 13.8357C276.733 9.68626 265.255 27.8322 261.456 35.8279C260.419 38.0104 259.737 41.4138 259.018 45.0525C257.363 53.3994 255.495 62.8594 248.856 62.2529C239.999 61.4549 237.86 52.8408 237.505 51.0294C238.59 49.6928 242.436 44.6256 241.263 41.5295C240.809 40.3325 239.723 39.5984 238.044 39.355C236.204 39.0837 234.704 39.5066 233.587 40.6078C231.648 42.519 231.432 46.0181 231.488 48.029C229.094 46.5846 224.063 43.9314 221.514 45.3199C220.803 45.7188 219.961 46.5807 220.001 48.5397C220.117 54.3529 226.828 55.9449 230.774 56.0047C234.548 65.0019 242.369 70.4321 242.744 70.6835C252.958 76.9676 277.456 78.2643 287.498 78.5436C291.859 78.6593 296.18 78.6712 300.29 78.5914C312.73 78.356 323.204 77.2628 326.874 75.6748ZM231.915 50.0878L233.288 51.0054L233.076 49.3696C233.076 49.3137 232.394 43.8875 234.632 41.6851C235.406 40.923 236.448 40.6477 237.824 40.8472C239.488 41.0906 239.767 41.8327 239.863 42.0721C240.593 44.0072 237.964 48.1766 236.136 50.3471L235.917 50.6064L235.969 50.9416C235.969 51.0573 237.84 62.7636 248.736 63.7571C249.042 63.7846 249.348 63.7966 249.654 63.793C256.876 63.6493 258.883 53.543 260.507 45.3558C261.205 41.8287 261.867 38.4972 262.825 36.4823C266.479 28.7978 277.507 11.346 300.896 15.3359C331.538 20.5467 334.355 43.0097 334.487 49.7686C334.71 60.9841 333.529 63.3341 333.21 63.7331L332.217 63.6174L332.668 64.7785C332.759 65.0139 334.81 70.6157 326.284 74.2983C317.35 78.1565 259.653 79.3256 243.578 69.4347C243.498 69.3788 235.522 63.8488 232.007 54.9833L231.815 54.5006H231.297C231.197 54.5006 221.645 54.6203 221.522 48.5157C221.494 47.0515 222.068 46.7402 222.256 46.6365C222.559 46.4867 222.895 46.4115 223.233 46.4171C225.479 46.3812 229.549 48.4958 231.923 50.0878H231.915Z" fill="white"/>
<path d="M310.727 68.2337C302.871 68.3893 294.604 67.328 288.699 63.4059C284.206 60.4215 281.561 56.0606 280.835 50.4508L282.319 50.2593C282.99 55.4182 285.411 59.436 289.529 62.1571C303.625 71.5253 333.17 63.5256 333.465 63.4458L333.864 64.8902C333.126 65.0936 322.382 68.0023 310.727 68.2337Z" fill="white"/>
<path d="M280.604 51.1928C279.76 51.2281 278.926 51.0084 278.21 50.5624L279.076 49.3415L278.645 49.952L279.068 49.3335C279.147 49.3854 281.027 50.5943 283.899 48.2483L284.845 49.4093C283.177 50.7619 281.737 51.1689 280.604 51.1928Z" fill="white"/>
<path d="M268.67 73.2011C268.43 73.2011 268.195 73.2011 267.964 73.2011C264.704 73.0415 262.545 71.3897 262.035 68.6606C261.865 67.9438 261.87 67.1968 262.049 66.4823C262.228 65.7678 262.576 65.1068 263.064 64.555C266.033 61.2274 273.928 61.7621 274.264 61.7621L274.156 63.2583C274.084 63.2583 266.663 62.7636 264.181 65.5445C263.848 65.927 263.613 66.3845 263.495 66.8779C263.378 67.3713 263.382 67.8858 263.507 68.3773C264.014 71.0984 266.563 71.6251 268.035 71.6969C272.153 71.8964 276.813 69.3828 277.655 66.51L279.095 66.909C278.046 70.5678 272.895 73.1173 268.67 73.2011Z" fill="white"/>
<path d="M302.193 6.22307C302.193 6.15524 302.863 -0.53578 305.923 -3.16112C308.094 -5.02439 308.094 -7.39837 306.989 -8.68311C306.047 -9.78033 304.228 -10.1474 302.285 -8.47963C298.738 -5.43535 300.497 5.08596 300.689 6.28292L301.686 11.7052L302.193 6.22307ZM305.852 -7.70559C306.49 -6.96347 306.326 -5.48323 304.946 -4.29823C303.318 -2.90178 302.297 -0.639517 301.662 1.41926C301.459 -2.01203 301.662 -5.96999 303.258 -7.35847C303.71 -7.79132 304.295 -8.0597 304.918 -8.12054C305.095 -8.12745 305.271 -8.09364 305.433 -8.02169C305.595 -7.94975 305.738 -7.84161 305.852 -7.70559Z" fill="white"/>
<path d="M299.691 7.10482C299.528 5.4171 297.888 -9.45317 291.875 -10.9613C290.768 -11.2586 289.588 -11.1177 288.582 -10.5678C287.576 -10.0179 286.821 -9.10142 286.473 -8.00884C285.786 -5.98996 286.497 -3.34467 289.629 -1.9921C294.696 0.19435 298.259 7.43199 298.295 7.50779L300.126 11.2782L299.691 7.10482ZM291.532 -9.51701C294.832 -8.67914 296.791 -1.57317 297.696 3.55782C296.056 1.13197 293.463 -1.97215 290.239 -3.36462C287.845 -4.40598 287.446 -6.19743 287.905 -7.53005C288.097 -8.11832 288.465 -8.63331 288.96 -9.00516C289.455 -9.37702 290.052 -9.58775 290.67 -9.60878C290.96 -9.61465 291.25 -9.58382 291.532 -9.51701Z" fill="white"/>
<path d="M304.236 6.84141C304.858 6.77757 310.336 6.1352 311.274 3.83703C311.485 3.31037 311.569 2.48446 310.759 1.50694C310.529 1.20144 310.226 0.959448 309.877 0.803781C309.528 0.648114 309.145 0.583903 308.764 0.617201C306.302 0.844624 303.785 5.2295 303.505 5.73223L302.803 6.99303L304.236 6.84141ZM309.606 2.45255C310.005 2.9433 309.917 3.1787 309.885 3.25052C309.578 4.00062 307.675 4.70683 305.656 5.09384C306.665 3.63355 307.986 2.17325 308.9 2.08947H308.96C309.089 2.09317 309.215 2.12815 309.328 2.19139C309.44 2.25463 309.536 2.34425 309.606 2.45255Z" fill="white"/>
<path d="M390.039 26.9V34.226C390.039 35.546 390.292 36.536 390.798 37.196C391.326 37.834 392.184 38.153 393.372 38.153C394.208 38.153 394.989 38.065 395.715 37.889C396.463 37.691 397.057 37.405 397.497 37.031V26.9H402.018V50H397.497V40.694C396.925 41.024 396.155 41.332 395.187 41.618C394.241 41.882 393.108 42.014 391.788 42.014C390.864 42.014 390.017 41.904 389.247 41.684C388.499 41.442 387.839 41.068 387.267 40.562C386.717 40.034 386.288 39.374 385.98 38.582C385.672 37.768 385.518 36.789 385.518 35.645V26.9H390.039ZM419.457 37.196L419.721 34.193H419.556L418.005 37.295L409.392 50H405.993V26.9H410.514V39.473L410.184 42.575H410.382L411.999 39.374L420.612 26.9H423.978V50H419.457V37.196ZM444.372 30.926H437.64V50H433.119V30.926H426.354V26.9H444.372V30.926ZM455.534 44.885H448.439L446.69 50H442.169L450.485 26.735H453.818L462.134 50H457.382L455.534 44.885ZM449.594 41.255H454.544L452.828 36.107L452.135 32.477H451.97L451.277 36.14L449.594 41.255ZM464.129 26.9H477.824V30.926H468.65V36.305H476.999V40.331H468.65V45.974H477.989V50H464.129V26.9ZM499.29 38.021L499.785 33.434H499.587L498.168 37.13L493.251 45.743H491.799L486.618 37.097L485.166 33.434H485.001L485.661 37.988V50H481.371V26.9H485.496L491.667 37.46L492.756 40.1H492.888L493.878 37.394L499.719 26.9H503.811V50H499.29V38.021ZM528.717 30.926H520.632V50H516.111V26.9H533.238V50H528.717V30.926ZM536.461 38.45C536.461 34.6 537.308 31.641 539.002 29.573C540.696 27.483 543.116 26.438 546.262 26.438C547.912 26.438 549.353 26.724 550.585 27.296C551.817 27.868 552.84 28.682 553.654 29.738C554.468 30.794 555.073 32.059 555.469 33.533C555.865 35.007 556.063 36.646 556.063 38.45C556.063 42.3 555.205 45.27 553.489 47.36C551.795 49.428 549.386 50.462 546.262 50.462C544.59 50.462 543.138 50.176 541.906 49.604C540.674 49.032 539.651 48.218 538.837 47.162C538.045 46.106 537.451 44.841 537.055 43.367C536.659 41.893 536.461 40.254 536.461 38.45ZM541.213 38.45C541.213 39.616 541.312 40.694 541.51 41.684C541.708 42.652 542.005 43.488 542.401 44.192C542.819 44.896 543.347 45.446 543.985 45.842C544.623 46.238 545.382 46.436 546.262 46.436C547.868 46.436 549.111 45.809 549.991 44.555C550.871 43.301 551.311 41.266 551.311 38.45C551.311 37.328 551.212 36.283 551.014 35.315C550.838 34.347 550.552 33.5 550.156 32.774C549.76 32.048 549.243 31.487 548.605 31.091C547.967 30.673 547.186 30.464 546.262 30.464C544.656 30.464 543.413 31.113 542.533 32.411C541.653 33.687 541.213 35.7 541.213 38.45ZM559.096 38.615H567.379V42.41H559.096V38.615ZM576.895 40.133H575.707V50H571.186V26.9H575.707V37.13L576.763 36.668L583.132 26.9H588.28L581.548 36.602L579.766 37.856L581.614 39.143L589.303 50H583.726L576.895 40.133ZM591.65 27.131C592.574 26.955 593.586 26.823 594.686 26.735C595.808 26.625 596.919 26.57 598.019 26.57C599.163 26.57 600.307 26.669 601.451 26.867C602.617 27.043 603.662 27.417 604.586 27.989C605.51 28.539 606.258 29.32 606.83 30.332C607.424 31.322 607.721 32.62 607.721 34.226C607.721 35.678 607.468 36.91 606.962 37.922C606.456 38.912 605.785 39.726 604.949 40.364C604.113 41.002 603.156 41.464 602.078 41.75C601.022 42.036 599.922 42.179 598.778 42.179C598.668 42.179 598.492 42.179 598.25 42.179C598.008 42.179 597.755 42.179 597.491 42.179C597.227 42.157 596.963 42.135 596.699 42.113C596.457 42.091 596.281 42.069 596.171 42.047V50H591.65V27.131ZM598.382 30.464C597.942 30.464 597.524 30.486 597.128 30.53C596.732 30.552 596.413 30.585 596.171 30.629V38.12C596.259 38.142 596.391 38.164 596.567 38.186C596.743 38.208 596.93 38.23 597.128 38.252C597.326 38.252 597.513 38.252 597.689 38.252C597.887 38.252 598.03 38.252 598.118 38.252C598.712 38.252 599.295 38.197 599.867 38.087C600.461 37.977 600.989 37.779 601.451 37.493C601.913 37.185 602.276 36.767 602.54 36.239C602.826 35.711 602.969 35.018 602.969 34.16C602.969 33.434 602.837 32.84 602.573 32.378C602.309 31.894 601.957 31.509 601.517 31.223C601.099 30.937 600.615 30.739 600.065 30.629C599.515 30.519 598.954 30.464 598.382 30.464ZM617.548 37.097L618.208 40.1H618.406L618.934 36.998L622.399 26.9H627.052L620.914 42.872C620.43 44.126 619.957 45.215 619.495 46.139C619.055 47.063 618.571 47.833 618.043 48.449C617.537 49.043 616.965 49.494 616.327 49.802C615.689 50.088 614.941 50.231 614.083 50.231C613.357 50.231 612.763 50.176 612.301 50.066C611.861 49.978 611.377 49.769 610.849 49.439L612.004 45.776C612.378 45.974 612.719 46.095 613.027 46.139C613.335 46.183 613.665 46.205 614.017 46.205C615.051 46.205 615.777 45.391 616.195 43.763L607.549 26.9H612.862L617.548 37.097ZM641.188 30.926H633.103V50H628.582V26.9H645.709V50H641.188V30.926ZM662.627 40.331H654.179V50H649.658V26.9H654.179V36.305H662.627V26.9H667.148V50H662.627V40.331ZM670.427 38.45C670.427 34.6 671.274 31.641 672.968 29.573C674.662 27.483 677.082 26.438 680.228 26.438C681.878 26.438 683.319 26.724 684.551 27.296C685.783 27.868 686.806 28.682 687.62 29.738C688.434 30.794 689.039 32.059 689.435 33.533C689.831 35.007 690.029 36.646 690.029 38.45C690.029 42.3 689.171 45.27 687.455 47.36C685.761 49.428 683.352 50.462 680.228 50.462C678.556 50.462 677.104 50.176 675.872 49.604C674.64 49.032 673.617 48.218 672.803 47.162C672.011 46.106 671.417 44.841 671.021 43.367C670.625 41.893 670.427 40.254 670.427 38.45ZM675.179 38.45C675.179 39.616 675.278 40.694 675.476 41.684C675.674 42.652 675.971 43.488 676.367 44.192C676.785 44.896 677.313 45.446 677.951 45.842C678.589 46.238 679.348 46.436 680.228 46.436C681.834 46.436 683.077 45.809 683.957 44.555C684.837 43.301 685.277 41.266 685.277 38.45C685.277 37.328 685.178 36.283 684.98 35.315C684.804 34.347 684.518 33.5 684.122 32.774C683.726 32.048 683.209 31.487 682.571 31.091C681.933 30.673 681.152 30.464 680.228 30.464C678.622 30.464 677.379 31.113 676.499 32.411C675.619 33.687 675.179 35.7 675.179 38.45ZM711.179 38.021L711.674 33.434H711.476L710.057 37.13L705.14 45.743H703.688L698.507 37.097L697.055 33.434H696.89L697.55 37.988V50H693.26V26.9H697.385L703.556 37.46L704.645 40.1H704.777L705.767 37.394L711.608 26.9H715.7V50H711.179V38.021ZM727.376 37.097L728.036 40.1H728.234L728.762 36.998L732.227 26.9H736.88L730.742 42.872C730.258 44.126 729.785 45.215 729.323 46.139C728.883 47.063 728.399 47.833 727.871 48.449C727.365 49.043 726.793 49.494 726.155 49.802C725.517 50.088 724.769 50.231 723.911 50.231C723.185 50.231 722.591 50.176 722.129 50.066C721.689 49.978 721.205 49.769 720.677 49.439L721.832 45.776C722.206 45.974 722.547 46.095 722.855 46.139C723.163 46.183 723.493 46.205 723.845 46.205C724.879 46.205 725.605 45.391 726.023 43.763L717.377 26.9H722.69L727.376 37.097ZM739.73 26.9H744.152V37.757L743.294 43.136H740.588L739.73 37.757V26.9ZM739.268 47.822C739.268 47.052 739.51 46.447 739.994 46.007C740.478 45.545 741.116 45.314 741.908 45.314C742.744 45.314 743.404 45.545 743.888 46.007C744.372 46.447 744.614 47.052 744.614 47.822C744.614 48.592 744.372 49.208 743.888 49.67C743.404 50.132 742.744 50.363 741.908 50.363C741.116 50.363 740.478 50.132 739.994 49.67C739.51 49.208 739.268 48.592 739.268 47.822Z" fill="white"/>
<path d="M889 26H764V51H889V26Z" fill="white"/>
<path d="M777.755 43.536C777.435 43.7813 777.029 43.952 776.539 44.048C776.048 44.144 775.525 44.192 774.971 44.192C774.299 44.192 773.669 44.08 773.083 43.856C772.496 43.6213 771.984 43.2693 771.547 42.8C771.109 42.3307 770.763 41.7333 770.507 41.008C770.251 40.272 770.123 39.4027 770.123 38.4C770.123 37.3547 770.261 36.4693 770.539 35.744C770.827 35.008 771.2 34.4107 771.659 33.952C772.128 33.4827 772.651 33.1413 773.227 32.928C773.803 32.7147 774.389 32.608 774.987 32.608C775.627 32.608 776.149 32.6453 776.555 32.72C776.96 32.784 777.307 32.8747 777.595 32.992L777.275 34.16C776.763 33.9147 776.032 33.792 775.083 33.792C774.645 33.792 774.213 33.872 773.787 34.032C773.36 34.192 772.976 34.4533 772.635 34.816C772.304 35.1787 772.037 35.6533 771.835 36.24C771.632 36.8267 771.531 37.5467 771.531 38.4C771.531 39.168 771.627 39.84 771.819 40.416C772.011 40.992 772.272 41.472 772.603 41.856C772.944 42.24 773.339 42.528 773.787 42.72C774.245 42.912 774.741 43.008 775.275 43.008C775.755 43.008 776.171 42.96 776.523 42.864C776.885 42.768 777.189 42.6453 777.435 42.496L777.755 43.536ZM781.807 38.816H781.055V44H779.727V32.8H781.055V38.016L781.775 37.792L785.535 32.8H787.071L783.327 37.616L782.655 38.144L783.471 38.784L787.567 44H785.887L781.807 38.816ZM796.341 36.416L796.437 35.136H796.373L795.685 36.448L790.277 44H789.493V32.8H790.821V40.48L790.709 41.744H790.773L791.477 40.432L796.885 32.8H797.669V44H796.341V36.416ZM809.279 46.064H808.367L808.127 44H800.271L800.031 46.064H799.103V42.816H800.239C800.325 42.6987 800.453 42.4267 800.623 42C800.805 41.5627 800.981 40.944 801.151 40.144C801.333 39.3333 801.493 38.3253 801.631 37.12C801.77 35.904 801.839 34.464 801.839 32.8H807.823V42.816H809.279V46.064ZM806.495 42.816V33.984H803.087C803.055 35.1573 802.991 36.2133 802.895 37.152C802.81 38.0907 802.703 38.9227 802.575 39.648C802.447 40.3627 802.303 40.9813 802.143 41.504C801.983 42.0267 801.818 42.464 801.647 42.816H806.495ZM813.167 38.816H812.415V44H811.087V32.8H812.415V38.016L813.135 37.792L816.895 32.8H818.431L814.687 37.616L814.015 38.144L814.831 38.784L818.927 44H817.247L813.167 38.816ZM826.18 40.896H822.052L820.932 44H819.62L823.86 32.624H824.468L828.724 44H827.332L826.18 40.896ZM822.484 39.744H825.78L824.532 36.336L824.132 34.64H824.116L823.716 36.368L822.484 39.744ZM840.765 46.032H839.901L839.661 44H833.645L833.405 46.032H832.541V42.88H833.485C833.57 42.7627 833.682 42.5547 833.821 42.256C833.96 41.9467 834.093 41.52 834.221 40.976C834.36 40.4213 834.477 39.7387 834.573 38.928C834.68 38.1067 834.744 37.1307 834.765 36H839.597V42.88H840.765V46.032ZM838.317 42.88V37.12H835.917C835.896 37.568 835.858 38.0587 835.805 38.592C835.752 39.1147 835.677 39.6427 835.581 40.176C835.496 40.6987 835.384 41.1947 835.245 41.664C835.106 42.1333 834.946 42.5387 834.765 42.88H838.317ZM841.901 40C841.901 38.6453 842.2 37.6107 842.797 36.896C843.405 36.1707 844.275 35.808 845.405 35.808C846.003 35.808 846.52 35.9093 846.957 36.112C847.405 36.304 847.773 36.5867 848.061 36.96C848.349 37.3227 848.563 37.7653 848.701 38.288C848.84 38.8 848.909 39.3707 848.909 40C848.909 41.3547 848.605 42.3947 847.997 43.12C847.4 43.8347 846.536 44.192 845.405 44.192C844.808 44.192 844.285 44.096 843.837 43.904C843.4 43.7013 843.037 43.4187 842.749 43.056C842.461 42.6827 842.248 42.24 842.109 41.728C841.971 41.2053 841.901 40.6293 841.901 40ZM843.229 40C843.229 40.4053 843.267 40.7947 843.341 41.168C843.427 41.5413 843.555 41.8667 843.725 42.144C843.896 42.4213 844.12 42.6453 844.397 42.816C844.675 42.9867 845.011 43.072 845.405 43.072C846.856 43.0827 847.581 42.0587 847.581 40C847.581 39.584 847.539 39.1893 847.453 38.816C847.379 38.4427 847.256 38.1173 847.085 37.84C846.915 37.5627 846.691 37.344 846.413 37.184C846.136 37.0133 845.8 36.928 845.405 36.928C843.955 36.9173 843.229 37.9413 843.229 40ZM861.097 35.344C861.097 35.9093 860.99 36.4907 860.777 37.088C860.574 37.6747 860.302 38.2667 859.961 38.864C859.63 39.4613 859.257 40.048 858.841 40.624C858.425 41.1893 858.009 41.728 857.593 42.24L856.809 42.928V42.992L857.833 42.816H861.321V44H854.953V43.536C855.188 43.2907 855.47 42.9867 855.801 42.624C856.132 42.2613 856.473 41.8613 856.825 41.424C857.188 40.976 857.54 40.5067 857.881 40.016C858.233 39.5147 858.548 39.008 858.825 38.496C859.113 37.984 859.342 37.4773 859.513 36.976C859.684 36.4747 859.769 36 859.769 35.552C859.769 35.0293 859.62 34.5973 859.321 34.256C859.022 33.904 858.569 33.728 857.961 33.728C857.556 33.728 857.161 33.8133 856.777 33.984C856.393 34.144 856.062 34.3307 855.785 34.544L855.257 33.632C855.63 33.312 856.073 33.0613 856.585 32.88C857.097 32.6987 857.646 32.608 858.233 32.608C858.692 32.608 859.097 32.6773 859.449 32.816C859.801 32.944 860.1 33.1307 860.345 33.376C860.59 33.6213 860.777 33.9147 860.905 34.256C861.033 34.5867 861.097 34.9493 861.097 35.344ZM863.368 38.4C863.368 36.48 863.677 35.0347 864.296 34.064C864.925 33.0933 865.837 32.608 867.032 32.608C868.322 32.608 869.256 33.088 869.832 34.048C870.418 34.9973 870.712 36.448 870.712 38.4C870.712 40.32 870.397 41.7653 869.768 42.736C869.149 43.7067 868.237 44.192 867.032 44.192C865.762 44.192 864.834 43.6853 864.248 42.672C863.661 41.6587 863.368 40.2347 863.368 38.4ZM864.696 38.4C864.696 39.0933 864.738 39.728 864.824 40.304C864.92 40.8693 865.064 41.36 865.256 41.776C865.448 42.1813 865.688 42.5013 865.976 42.736C866.274 42.96 866.626 43.072 867.032 43.072C867.842 43.072 868.434 42.6987 868.808 41.952C869.192 41.1947 869.384 40.0107 869.384 38.4C869.384 37.7173 869.341 37.088 869.256 36.512C869.181 35.936 869.048 35.44 868.856 35.024C868.674 34.608 868.434 34.288 868.136 34.064C867.837 33.84 867.469 33.728 867.032 33.728C866.232 33.728 865.64 34.1067 865.256 34.864C864.882 35.6213 864.696 36.8 864.696 38.4ZM872.518 35.328C872.518 34.848 872.582 34.4373 872.71 34.096C872.838 33.7547 873.009 33.472 873.222 33.248C873.446 33.024 873.708 32.864 874.006 32.768C874.316 32.6613 874.646 32.608 874.998 32.608C875.35 32.608 875.676 32.656 875.974 32.752C876.284 32.848 876.545 33.0027 876.758 33.216C876.982 33.4293 877.158 33.712 877.286 34.064C877.414 34.4053 877.478 34.8267 877.478 35.328C877.478 35.8293 877.414 36.256 877.286 36.608C877.158 36.9493 876.982 37.2267 876.758 37.44C876.545 37.6533 876.284 37.808 875.974 37.904C875.676 38 875.35 38.048 874.998 38.048C874.646 38.048 874.316 38 874.006 37.904C873.708 37.808 873.446 37.6533 873.222 37.44C873.009 37.2267 872.838 36.9493 872.71 36.608C872.582 36.256 872.518 35.8293 872.518 35.328ZM873.702 35.328C873.702 35.968 873.814 36.4267 874.038 36.704C874.273 36.9813 874.593 37.12 874.998 37.12C875.201 37.12 875.382 37.0933 875.542 37.04C875.702 36.976 875.836 36.88 875.942 36.752C876.06 36.6133 876.145 36.432 876.198 36.208C876.262 35.9733 876.294 35.68 876.294 35.328C876.294 34.976 876.262 34.688 876.198 34.464C876.145 34.2293 876.06 34.048 875.942 33.92C875.836 33.7813 875.702 33.6853 875.542 33.632C875.382 33.568 875.201 33.536 874.998 33.536C874.593 33.536 874.273 33.664 874.038 33.92C873.814 34.1653 873.702 34.6347 873.702 35.328ZM878.23 41.264C878.23 40.784 878.294 40.3733 878.422 40.032C878.55 39.6907 878.721 39.408 878.934 39.184C879.158 38.96 879.42 38.8 879.718 38.704C880.028 38.5973 880.358 38.544 880.71 38.544C881.062 38.544 881.388 38.592 881.686 38.688C881.996 38.784 882.257 38.9387 882.47 39.152C882.694 39.3653 882.87 39.648 882.998 40C883.126 40.3413 883.19 40.7627 883.19 41.264C883.19 41.7653 883.126 42.192 882.998 42.544C882.87 42.8853 882.694 43.1627 882.47 43.376C882.257 43.5893 881.996 43.744 881.686 43.84C881.388 43.936 881.062 43.984 880.71 43.984C880.358 43.984 880.028 43.936 879.718 43.84C879.42 43.744 879.158 43.5893 878.934 43.376C878.721 43.1627 878.55 42.8853 878.422 42.544C878.294 42.192 878.23 41.7653 878.23 41.264ZM879.414 41.264C879.414 41.904 879.526 42.3627 879.75 42.64C879.985 42.9173 880.305 43.056 880.71 43.056C880.913 43.056 881.094 43.0293 881.254 42.976C881.414 42.912 881.548 42.816 881.654 42.688C881.772 42.5493 881.857 42.368 881.91 42.144C881.974 41.9093 882.006 41.616 882.006 41.264C882.006 40.912 881.974 40.624 881.91 40.4C881.857 40.1653 881.772 39.984 881.654 39.856C881.548 39.7173 881.414 39.6213 881.254 39.568C881.094 39.504 880.913 39.472 880.71 39.472C880.305 39.472 879.985 39.6 879.75 39.856C879.526 40.1013 879.414 40.5707 879.414 41.264ZM881.59 32.592L882.374 33.2L874.166 44.192L873.366 43.568L881.59 32.592Z" fill="#26A9E0"/>
<path d="M904.818 43.02H907.32V35.91L907.59 34.686L906.726 35.748L905.124 36.846L904.134 35.496L908.238 32.184H909.552V43.02H912V45H904.818V43.02ZM915.031 43.02H917.533V35.91L917.803 34.686L916.939 35.748L915.337 36.846L914.347 35.496L918.451 32.184H919.765V43.02H922.213V45H915.031V43.02ZM924.182 43.812C924.182 43.392 924.314 43.062 924.578 42.822C924.842 42.57 925.19 42.444 925.622 42.444C926.078 42.444 926.438 42.57 926.702 42.822C926.966 43.062 927.098 43.392 927.098 43.812C927.098 44.232 926.966 44.568 926.702 44.82C926.438 45.072 926.078 45.198 925.622 45.198C925.19 45.198 924.842 45.072 924.578 44.82C924.314 44.568 924.182 44.232 924.182 43.812ZM929.673 43.02H932.175V35.91L932.445 34.686L931.581 35.748L929.979 36.846L928.989 35.496L933.093 32.184H934.407V43.02H936.855V45H929.673V43.02ZM938.788 38.682C938.788 36.474 939.166 34.836 939.922 33.768C940.678 32.688 941.764 32.148 943.18 32.148C944.692 32.148 945.802 32.682 946.51 33.75C947.218 34.806 947.572 36.45 947.572 38.682C947.572 40.902 947.188 42.552 946.42 43.632C945.664 44.712 944.578 45.252 943.162 45.252C941.662 45.252 940.558 44.688 939.85 43.56C939.142 42.42 938.788 40.794 938.788 38.682ZM941.128 38.682C941.128 40.146 941.284 41.28 941.596 42.084C941.92 42.876 942.448 43.272 943.18 43.272C943.888 43.272 944.404 42.906 944.728 42.174C945.064 41.442 945.232 40.278 945.232 38.682C945.232 37.23 945.076 36.108 944.764 35.316C944.452 34.524 943.918 34.128 943.162 34.128C942.442 34.128 941.92 34.5 941.596 35.244C941.284 35.988 941.128 37.134 941.128 38.682ZM954.005 38.772H961.961V40.842H954.005V38.772ZM968.855 43.02H971.357V35.91L971.627 34.686L970.763 35.748L969.161 36.846L968.171 35.496L972.275 32.184H973.589V43.02H976.037V45H968.855V43.02ZM979.122 45L983.244 35.298L984.036 34.416L982.956 34.596H978.33V32.4H986.448V33.084L981.408 45H979.122ZM986.074 43.812C986.074 43.392 986.206 43.062 986.47 42.822C986.734 42.57 987.082 42.444 987.514 42.444C987.97 42.444 988.33 42.57 988.594 42.822C988.858 43.062 988.99 43.392 988.99 43.812C988.99 44.232 988.858 44.568 988.594 44.82C988.33 45.072 987.97 45.198 987.514 45.198C987.082 45.198 986.734 45.072 986.47 44.82C986.206 44.568 986.074 44.232 986.074 43.812ZM991.566 43.02H994.068V35.91L994.338 34.686L993.474 35.748L991.872 36.846L990.882 35.496L994.986 32.184H996.3V43.02H998.748V45H991.566V43.02ZM1000.68 38.682C1000.68 36.474 1001.06 34.836 1001.81 33.768C1002.57 32.688 1003.66 32.148 1005.07 32.148C1006.58 32.148 1007.69 32.682 1008.4 33.75C1009.11 34.806 1009.46 36.45 1009.46 38.682C1009.46 40.902 1009.08 42.552 1008.31 43.632C1007.56 44.712 1006.47 45.252 1005.05 45.252C1003.55 45.252 1002.45 44.688 1001.74 43.56C1001.03 42.42 1000.68 40.794 1000.68 38.682ZM1003.02 38.682C1003.02 40.146 1003.18 41.28 1003.49 42.084C1003.81 42.876 1004.34 43.272 1005.07 43.272C1005.78 43.272 1006.3 42.906 1006.62 42.174C1006.96 41.442 1007.12 40.278 1007.12 38.682C1007.12 37.23 1006.97 36.108 1006.66 35.316C1006.34 34.524 1005.81 34.128 1005.05 34.128C1004.33 34.128 1003.81 34.5 1003.49 35.244C1003.18 35.988 1003.02 37.134 1003.02 38.682ZM1010.93 43.812C1010.93 43.392 1011.06 43.062 1011.33 42.822C1011.59 42.57 1011.94 42.444 1012.37 42.444C1012.83 42.444 1013.19 42.57 1013.45 42.822C1013.71 43.062 1013.85 43.392 1013.85 43.812C1013.85 44.232 1013.71 44.568 1013.45 44.82C1013.19 45.072 1012.83 45.198 1012.37 45.198C1011.94 45.198 1011.59 45.072 1011.33 44.82C1011.06 44.568 1010.93 44.232 1010.93 43.812ZM1023.15 35.478C1023.15 36.09 1023.04 36.708 1022.81 37.332C1022.6 37.956 1022.31 38.568 1021.97 39.168C1021.63 39.768 1021.25 40.35 1020.83 40.914C1020.42 41.466 1020.02 41.976 1019.63 42.444L1018.67 43.182V43.272L1019.97 43.02H1023.42V45H1015.85V43.794C1016.13 43.494 1016.46 43.146 1016.82 42.75C1017.18 42.342 1017.54 41.916 1017.9 41.472C1018.27 41.016 1018.63 40.548 1018.98 40.068C1019.33 39.588 1019.64 39.108 1019.91 38.628C1020.19 38.136 1020.41 37.662 1020.56 37.206C1020.73 36.75 1020.81 36.318 1020.81 35.91C1020.81 35.418 1020.67 35.016 1020.38 34.704C1020.11 34.38 1019.66 34.218 1019.05 34.218C1018.67 34.218 1018.27 34.302 1017.86 34.47C1017.47 34.626 1017.13 34.83 1016.85 35.082L1015.92 33.426C1016.39 33.042 1016.91 32.736 1017.5 32.508C1018.1 32.268 1018.8 32.148 1019.61 32.148C1020.12 32.148 1020.6 32.22 1021.03 32.364C1021.46 32.508 1021.83 32.718 1022.15 32.994C1022.46 33.27 1022.7 33.618 1022.88 34.038C1023.06 34.446 1023.15 34.926 1023.15 35.478ZM1026.63 43.02H1029.14V35.91L1029.41 34.686L1028.54 35.748L1026.94 36.846L1025.95 35.496L1030.05 32.184H1031.37V43.02H1033.82V45H1026.63V43.02ZM1046.42 38.07H1043.02V45H1040.61V36H1046.42V38.07ZM1045.82 43.812C1045.82 43.392 1045.95 43.062 1046.22 42.822C1046.48 42.57 1046.83 42.444 1047.26 42.444C1047.72 42.444 1048.08 42.57 1048.34 42.822C1048.61 43.062 1048.74 43.392 1048.74 43.812C1048.74 44.232 1048.61 44.568 1048.34 44.82C1048.08 45.072 1047.72 45.198 1047.26 45.198C1046.83 45.198 1046.48 45.072 1046.22 44.82C1045.95 44.568 1045.82 44.232 1045.82 43.812Z" fill="white"/>
</g>
<defs>
<clipPath id="clip0">
<rect width="1444" height="75" fill="white"/>
</clipPath>
</defs>
</svg>
