<?xml version="1.0" encoding="utf-8"?>
<!-- Generator: Adobe Illustrator 16.0.0, SVG Export Plug-In . SVG Version: 6.00 Build 0)  -->
<!DOCTYPE svg PUBLIC "-//W3C//DTD SVG 1.1//EN" "http://www.w3.org/Graphics/SVG/1.1/DTD/svg11.dtd">
<svg version="1.1" id="Слой_1" xmlns="http://www.w3.org/2000/svg" xmlns:xlink="http://www.w3.org/1999/xlink" x="0px" y="0px"
	 width="44px" height="28px" viewBox="0 0 44 28" enable-background="new 0 0 44 28" xml:space="preserve">
<g>
	<path fill="#FFFFFF" d="M44,26c0,1.1-0.9,2-2,2H2c-1.1,0-2-0.9-2-2V2c0-1.1,0.9-2,2-2h40c1.1,0,2,0.9,2,2V26z"/>
</g>
<g>
	<g id="形状_1_6_" enable-background="new    ">
		<g id="形状_1_7_">
			<g>
				<path fill="#005BAC" d="M17.573,9.174L16,18.834h2.515l1.572-9.66H17.573z M13.884,9.174l-2.398,6.645l-0.283-1.43l0,0
					l-0.063-0.321c-0.29-0.626-0.962-1.815-2.231-2.829c-0.375-0.301-0.753-0.557-1.119-0.774l2.179,8.37h2.621l4.002-9.66H13.884z
					 M23.699,11.855c0-1.094,2.449-0.952,3.527-0.357l0.357-2.076c0,0-1.107-0.422-2.262-0.422c-1.248,0-4.212,0.546-4.212,3.199
					c0,2.496,3.48,2.525,3.48,3.836c0,1.313-3.121,1.078-4.151,0.25l-0.374,2.17c0,0,1.123,0.545,2.839,0.545
					c1.716,0,4.305-0.889,4.305-3.307C27.209,13.182,23.699,12.947,23.699,11.855z M33.963,9.174H31.94
					c-0.934,0-1.161,0.721-1.161,0.721l-3.75,8.939h2.621l0.525-1.436h3.195l0.297,1.436h2.309L33.963,9.174z M30.899,15.416
					l1.321-3.614l0.744,3.614H30.899z"/>
			</g>
		</g>
	</g>
	<g id="形状_1_4_" enable-background="new    ">
		<g id="形状_1_5_">
			<g>
				<path fill="#F6AC1D" d="M10.391,10.084c0,0-0.104-0.873-1.216-0.873H5.137L5.09,9.375c0,0,1.941,0.396,3.803,1.879
					c1.779,1.416,2.359,3.183,2.359,3.183L10.391,10.084z"/>
			</g>
		</g>
	</g>
</g>
</svg>
